<svg width="307" height="38" viewBox="0 0 307 38" fill="none" xmlns="http://www.w3.org/2000/svg">
<g clip-path="url(#clip0_230_281)">
<path d="M0 37.8814V18.1416L17.2848 37.8157L0 37.8814Z" fill="#7716BC"/>
<path d="M11.9644 37.8813V12.6348L34.0718 37.7982L11.9644 37.8813Z" fill="white"/>
<path d="M54.0905 37.8814V18.1416L36.8057 37.8157L54.0905 37.8814Z" fill="#7716BC"/>
<path d="M42.1308 37.8813V12.6348L20.0234 37.7982L42.1308 37.8813Z" fill="#7716BC"/>
<path d="M33.1633 10.754L27.0452 20.6479L20.9316 10.754L27.0452 0.86441L33.1633 10.754Z" fill="#833AB4"/>
<path d="M27.0452 0.86441L33.1633 10.754L27.0452 20.6479" fill="white"/>
<path d="M132.843 15.4735V14.8655C132.843 11.3357 132.903 7.80591 132.893 4.28049C132.893 3.74686 133.115 3.48005 133.815 3.4713C134.737 3.4713 135.66 3.4713 136.609 3.4713C137.342 3.4713 137.568 3.75123 137.564 4.30673C137.496 11.9933 137.444 19.6783 137.407 27.3619C137.407 30.4237 137.361 33.4855 137.379 36.5735C137.379 37.0853 137.158 37.3346 136.508 37.3477C135.526 37.3477 134.539 37.3477 133.557 37.3477C132.916 37.3477 132.672 37.0897 132.681 36.5692C132.737 32.8119 132.681 29.0547 132.792 25.3018C132.875 22.1569 131.547 19.3882 129.233 16.8382C128.656 16.2039 128.011 15.6003 127.388 14.9836L127.181 15.0317V15.6878C127.098 22.6133 127.015 29.5358 126.932 36.4554C126.932 37.3302 126.932 37.3521 125.747 37.409C124.871 37.4483 123.981 37.409 123.101 37.374C122.469 37.374 122.261 37.1159 122.271 36.6348C122.367 31.9852 122.46 27.3313 122.501 22.6774C122.557 16.5772 122.583 10.4755 122.58 4.37233C122.58 3.76435 122.81 3.46692 123.612 3.46692C124.567 3.46692 125.526 3.46692 126.485 3.46692C127.029 3.46692 127.273 3.69874 127.264 4.13614C127.241 5.50519 127.301 6.88299 127.241 8.25205C127.178 9.0603 127.442 9.8609 127.978 10.4915C129.454 12.193 130.989 13.8682 132.497 15.5566L132.843 15.4735Z" fill="white"/>
<path d="M259.779 15.0623C259.779 15.3816 259.779 15.7009 259.779 16.0202C259.701 22.8655 259.613 29.7108 259.558 36.556C259.558 37.1378 259.323 37.4308 258.553 37.4308C257.631 37.4308 256.685 37.4308 255.754 37.409C255.113 37.409 254.832 37.1903 254.832 36.661C254.924 32.6195 254.99 28.5764 255.03 24.532C255.09 17.8398 255.122 11.1476 255.164 4.45543C255.164 3.62437 255.164 3.58064 256.261 3.5019C257.137 3.44942 258.022 3.5019 258.908 3.5019C259.576 3.5019 259.871 3.7381 259.83 4.29359C259.779 5.70201 259.774 7.1148 259.83 8.5276C259.847 9.0856 260.006 9.63151 260.291 10.1197C261.508 12.1318 263.398 13.807 265.362 15.5085C265.362 15.3204 265.409 15.1323 265.409 14.9442C265.409 11.3969 265.455 7.84963 265.436 4.30234C265.436 3.75122 265.708 3.5194 266.358 3.50628C267.28 3.50628 268.175 3.50628 269.079 3.50628C269.858 3.50628 270.139 3.7731 270.134 4.38108C270.039 14.3712 269.964 24.3629 269.908 34.3559C269.908 35.1607 269.881 35.9612 269.908 36.7616C269.908 37.1203 269.719 37.3302 269.277 37.339C268.143 37.3594 267.008 37.3594 265.874 37.339C265.312 37.339 265.252 37.0109 265.252 36.6435C265.279 32.8294 265.229 29.0153 265.321 25.2012C265.39 22.205 264.141 19.55 261.983 17.0918C261.361 16.3833 260.65 15.714 259.982 15.0273L259.779 15.0623Z" fill="white"/>
<path d="M112.243 35.5632C112.832 35.1706 113.33 34.6662 113.704 34.082C114.077 33.4978 114.319 32.8464 114.414 32.169C114.615 30.5721 114.722 28.9658 114.733 27.3576C114.757 19.6565 114.749 11.9524 114.709 4.2455C114.709 3.725 114.968 3.49756 115.604 3.48443C116.526 3.46256 117.471 3.45819 118.402 3.45819C119.172 3.45819 119.481 3.71626 119.477 4.33299C119.449 10.6461 119.449 16.9577 119.477 23.2679C119.477 25.3499 119.578 27.4276 119.537 29.5052C119.502 30.5201 119.348 31.5281 119.076 32.5101C118.213 35.7994 114.571 37.7589 110.076 37.4352C109.749 37.4352 109.426 37.3784 109.098 37.3346C108.522 37.2603 108.176 37.0416 108.052 36.5692C107.817 35.5019 106.904 34.719 106.009 33.9448C104.674 32.892 103.786 31.4157 103.511 29.7895C103.249 28.2055 103.095 26.6071 103.049 25.0044C103.026 18.0629 103.096 11.1214 103.105 4.17989C103.105 3.67689 103.4 3.48006 103.99 3.47131C104.949 3.47131 105.908 3.47131 106.862 3.47131C107.554 3.47131 107.784 3.73376 107.784 4.27176C107.734 9.52053 107.683 14.7693 107.715 20.0181C107.715 22.8961 107.881 25.7742 108.02 28.6523C108.107 30.4543 108.911 32.158 110.27 33.4199C110.961 34.0979 111.565 34.824 112.243 35.5632Z" fill="white"/>
<path d="M280.065 34.4828C280.987 33.7304 281.822 33.07 282.606 32.3745C283.823 31.2898 284.044 29.9557 284.09 28.6129C284.146 27.0864 284.09 25.5511 284.09 24.0334C284.09 22.2094 283.952 20.368 285.146 18.5834H282.523C282.523 19.0776 282.523 19.5981 282.523 20.123C282.523 20.8841 282.583 21.6452 282.583 22.4106C282.587 22.6221 282.519 22.8294 282.389 23.0011C281.96 23.5216 280.061 24.392 279.083 24.5276C279.049 24.3703 279.026 24.211 279.014 24.0508C279.014 21.9688 279.074 19.8912 279.06 17.8136C279.06 17.3368 279.309 17.1356 279.89 17.1356C283.099 17.1356 286.308 17.1443 289.517 17.1618C289.603 17.1812 289.685 17.2122 289.761 17.2537C289.522 17.5336 289.3 17.7961 289.07 18.0672C288.318 19.0076 288.254 20.0662 288.263 21.129C288.286 23.1104 288.42 25.0962 288.461 27.0776C288.488 28.1632 288.457 29.2493 288.369 30.3319C288.239 31.2253 287.742 32.0336 286.986 32.5801C286.423 33.0437 285.819 33.4768 285.229 33.9229C284.233 34.5872 283.513 35.5601 283.191 36.6741C283.094 37.0765 282.804 37.2646 282.269 37.3084C280.337 37.4615 278.636 37.2777 277.138 36.1361C274.597 34.1941 273.279 31.8978 273.173 29.2253C273.016 25.2406 272.965 21.2559 272.905 17.2712C272.868 14.6774 272.822 12.0837 272.905 9.48988C272.984 7.15856 274.348 5.29961 277.032 4.08364C280.854 2.33405 286.612 4.05302 287.636 7.21103C287.817 7.82047 287.911 8.45002 287.917 9.08311C287.963 10.3953 287.917 11.7075 287.954 13.0197C287.954 13.4571 287.728 13.6364 287.23 13.6452C286.17 13.6627 285.111 13.6627 284.053 13.6452C283.537 13.6452 283.343 13.4046 283.33 13.0066C283.265 11.257 283.191 9.50737 283.067 7.75778C282.988 6.61617 282.315 5.68015 281.153 4.93657C281.004 4.80841 280.808 4.74114 280.607 4.74932C280.406 4.75751 280.216 4.8405 280.079 4.98032C279.254 5.59186 278.591 6.37677 278.14 7.2732C277.69 8.16962 277.465 9.15306 277.483 10.146C277.442 13.9207 277.484 17.6955 277.516 21.4702C277.516 23.7797 277.516 26.0847 277.622 28.3898C277.705 30.1875 278.051 31.9634 279.263 33.5686C279.512 33.8442 279.766 34.1241 280.065 34.4828Z" fill="white"/>
<path d="M100.131 21.8857C100.131 24.9475 100.256 28.0093 100.103 31.0711C99.8913 35.257 95.6681 37.8551 90.1078 37.3871C89.8943 37.3895 89.6849 37.3312 89.5066 37.2197C89.3283 37.1083 89.1893 36.9487 89.1074 36.7616C88.6284 35.7141 88.0001 34.734 87.2401 33.8486C85.2435 31.8379 84.1476 29.1705 84.1833 26.4084C84.1833 20.9366 84.1833 15.4735 84.3032 9.99289C84.3678 6.76053 87.7841 3.97431 92.035 3.54566C93.0391 3.46101 94.0481 3.44201 95.0549 3.48879C95.199 3.51472 95.3358 3.56897 95.4565 3.64807C95.5772 3.72716 95.6791 3.82935 95.7557 3.94806C96.2168 4.70475 96.4796 5.53581 97.0328 6.24439C98.4897 8.11646 99.836 10.0148 100.039 12.228C100.182 13.7895 100.2 15.3554 100.228 16.9169C100.26 18.5746 100.228 20.2324 100.228 21.8945L100.131 21.8857ZM91.7307 5.41334C89.9972 6.61181 88.9644 8.01148 88.9183 9.74357C88.8353 15.1032 88.7846 20.4613 88.7662 25.8179C88.7662 28.7747 89.5177 31.5785 91.929 34.0148C92.3555 34.506 92.7542 35.0185 93.1231 35.55C93.7247 34.85 94.2864 34.1199 94.806 33.363C95.5344 32.1602 95.5943 30.8436 95.599 29.5489C95.599 24.3439 95.599 19.1345 95.5667 13.9295C95.5213 12.878 95.3747 11.8326 95.1287 10.8064C94.7183 8.79004 92.8511 7.27665 91.7307 5.41334Z" fill="white"/>
<path d="M203.983 21.9951C203.983 24.7419 204.029 27.4888 203.96 30.2356C203.94 31.2137 203.761 32.183 203.43 33.1093C202.507 35.585 199.741 37.1203 195.942 37.3783C195.744 37.3783 195.541 37.4002 195.338 37.409C193.314 37.4964 193.379 37.4746 192.599 36.0968C192.066 35.1533 191.418 34.2724 190.668 33.4724C189.007 31.7768 188.075 29.5537 188.053 27.2395C187.989 21.5008 187.97 15.7622 188.086 10.0235C188.16 6.64242 191.774 3.86931 196.288 3.53689C197.143 3.48005 198.001 3.48005 198.856 3.53689C198.999 3.56313 199.135 3.61755 199.255 3.69664C199.375 3.77574 199.476 3.87777 199.552 3.99617C199.985 4.71787 200.239 5.50956 200.755 6.18316C202.019 7.86276 203.342 9.51611 203.688 11.4757C203.849 12.3767 203.9 13.2952 203.992 14.205C204.004 14.4148 204.004 14.6251 203.992 14.8349V22.0432L203.983 21.9951ZM195.541 5.54892L195.287 5.34772C195.157 5.56025 195.003 5.75832 194.826 5.93821C194.142 6.46638 193.592 7.13366 193.216 7.89074C192.84 8.64782 192.648 9.47536 192.655 10.3122C192.655 15.8015 192.655 21.2909 192.609 26.7802C192.609 30.0432 194.453 32.7638 196.873 35.3619C197.044 35.2263 197.242 35.082 197.413 34.9245C197.974 34.4432 198.427 33.8591 198.744 33.2073C199.061 32.5556 199.235 31.8498 199.257 31.1323C199.303 24.9562 199.317 18.7846 199.257 12.6085C199.212 10.8626 198.536 9.18433 197.344 7.854C196.68 7.1148 196.136 6.32312 195.541 5.54892Z" fill="white"/>
<path d="M233.103 14.4718C235.408 14.0694 238.031 11.9262 238.285 10.1547C238.557 8.27829 238.7 6.3931 238.866 4.50792C238.963 3.44067 238.977 3.40131 240.429 3.40568C241.213 3.40568 242.001 3.40568 242.776 3.47567C243.006 3.47567 243.398 3.75123 243.389 3.88682C243.26 6.01695 243.186 8.15581 242.872 10.2728C242.67 11.655 241.489 12.7004 240.065 13.5664C238.23 14.6317 236.207 15.3727 234.094 15.7534C233.315 15.9065 233.283 16.1908 233.499 16.6282C233.926 17.4737 234.636 18.1612 235.519 18.5834C236.515 19.1082 237.566 19.5719 238.589 20.0618C239.207 20.3592 239.83 20.6523 240.433 20.9628C242.794 22.1919 244.011 23.8803 243.993 26.0497C243.965 29.5795 243.919 33.1093 243.901 36.6348C243.901 37.1159 243.652 37.3696 243.038 37.3783C242.027 37.3783 241.017 37.3711 240.009 37.3565C239.396 37.3565 239.193 37.0897 239.207 36.5998C239.285 33.035 239.322 29.4702 239.364 25.9054C239.364 23.9415 238.336 22.4062 236.136 21.3084C235.214 20.8403 234.228 20.3942 233.089 19.8518V20.6479C233.089 25.1837 233.089 29.7239 233.061 34.2641C233.061 35.0864 232.955 35.9043 232.932 36.7222C232.932 37.1203 232.697 37.3608 232.185 37.3652C231.102 37.3652 230.018 37.3652 228.935 37.3302C228.502 37.3302 228.308 37.1334 228.312 36.7616C228.38 29.5125 228.435 22.2648 228.478 15.0186C228.478 11.4319 228.511 7.84526 228.478 4.2586C228.478 3.72497 228.704 3.46691 229.401 3.46691C230.323 3.46691 231.245 3.46691 232.199 3.46691C232.854 3.46691 233.094 3.69874 233.089 4.22361C233.057 7.42536 233.089 10.6315 233.089 13.8464L233.103 14.4718Z" fill="white"/>
<path d="M73.45 34.5834C74.3721 33.8092 75.2112 33.1312 75.9904 32.3964C76.7766 31.6159 77.2044 30.5714 77.1799 29.4921C77.2583 28.0836 77.3182 26.6752 77.332 25.2624C77.332 24.7988 77.5672 24.5757 78.1481 24.567C79.1347 24.567 80.1168 24.567 81.0988 24.567C81.4999 24.567 81.8457 24.7069 81.8227 25.0875C81.7258 26.8371 81.6705 28.5867 81.523 30.3362C81.4354 31.3423 80.7669 32.1821 79.8909 32.9256C79.2869 33.4418 78.6645 33.9404 78.0467 34.4565C77.279 35.0812 76.7065 35.8936 76.3915 36.8053C76.3216 36.9402 76.2193 37.0576 76.0927 37.1481C75.9662 37.2385 75.819 37.2994 75.663 37.3258C74.5842 37.3608 73.5007 37.3259 72.4357 37.2602C72.174 37.2235 71.9264 37.1241 71.7164 36.9716C68.9778 35.257 67.2857 33.0612 67.1059 30.3887C66.8339 26.8327 66.797 23.2679 66.714 19.7031C66.6448 16.7463 66.6449 13.7939 66.6218 10.8371C66.5344 9.52647 66.7811 8.21519 67.341 7.01421C69.3973 3.07763 75.2711 2.6971 78.4662 4.17551C80.4856 5.11154 81.1357 6.6293 81.2832 8.27392C81.3639 9.64482 81.3639 11.0189 81.2832 12.3898C81.246 12.5065 81.1776 12.6121 81.0847 12.6964C80.9918 12.7807 80.8776 12.8408 80.753 12.871C79.6788 12.9278 78.5953 12.9235 77.5257 12.9103C77.0093 12.9103 76.8156 12.6654 76.8064 12.263C76.7695 10.719 76.7142 9.17495 76.6174 7.63531C76.5649 6.77262 76.1714 5.96045 75.5155 5.36085C75.2454 5.0579 74.8622 4.86591 74.4462 4.82514C74.0302 4.78437 73.6136 4.89798 73.284 5.14215C71.6565 6.06943 71.2415 7.42537 71.1816 8.84691C71.1032 10.5965 71.1217 12.3461 71.1401 14.0957C71.1908 18.8021 71.2415 23.5128 71.3384 28.2236C71.3799 30.0957 71.638 31.9546 72.8183 33.6605C72.9843 33.9754 73.1918 34.2378 73.45 34.5834Z" fill="white"/>
<path d="M147.038 34.6402C148.832 33.1575 150.773 31.9677 150.856 29.9207C150.902 28.7966 150.976 27.6725 151.026 26.5484C151.026 26.111 151.059 25.6342 151.026 25.175C151.026 24.8163 151.239 24.6151 151.677 24.6063C152.732 24.5845 153.793 24.5801 154.849 24.6063C155.273 24.6063 155.554 24.7944 155.531 25.1618C155.425 26.9114 155.37 28.6304 155.222 30.3625C155.13 31.4079 154.411 32.2739 153.502 33.0437C152.793 33.5729 152.123 34.1472 151.497 34.7627C150.961 35.3793 150.51 36.0584 150.155 36.7835C149.975 37.1378 149.791 37.3827 149.302 37.3827C148.269 37.3827 147.237 37.3827 146.208 37.304C145.856 37.2457 145.524 37.1076 145.24 36.9016C142.423 35.1039 140.929 32.7813 140.69 30.0345C140.496 27.8475 140.427 25.6605 140.39 23.4735C140.321 19.2001 140.307 14.9267 140.279 10.6534C140.188 9.17382 140.574 7.7029 141.386 6.43685C143.691 3.08639 149.182 2.81083 152.202 4.24987C152.989 4.60105 153.658 5.15087 154.137 5.83908C154.616 6.52728 154.886 7.3273 154.918 8.15146C155.047 9.57737 154.955 11.012 154.982 12.4379C154.982 12.7922 154.724 12.9366 154.341 12.9497C153.309 12.9701 152.276 12.9701 151.243 12.9497C150.69 12.9497 150.51 12.696 150.496 12.2717C150.45 10.6884 150.436 9.1006 150.229 7.53035C150.09 6.79475 149.76 6.10343 149.27 5.51832C148.615 4.67851 147.799 4.64353 146.803 5.25589C146.361 5.51498 145.978 5.85684 145.679 6.26066C145.381 6.66447 145.172 7.12178 145.065 7.60471C144.903 8.25564 144.818 8.92167 144.812 9.59049C144.835 15.351 144.835 21.1115 144.964 26.8721C145.042 28.6314 145.293 30.3799 145.715 32.0946C145.904 32.93 146.54 33.713 147.038 34.6402Z" fill="white"/>
<path d="M211.493 15.8103C212.457 15.5478 213.273 15.2941 214.112 15.1017C216.235 14.5892 218.423 14.3552 220.613 14.4062C221.876 14.45 221.945 14.5112 221.968 15.4297C221.996 16.5757 222.037 17.7173 221.968 18.8633C221.951 19.0253 221.893 19.181 221.799 19.3173C221.705 19.4535 221.578 19.5664 221.429 19.6462C220.373 20.0836 219.253 20.4467 218.151 20.8141C217.616 20.9934 217.362 20.8578 217.367 20.3767C217.367 19.0208 217.339 17.6692 217.326 16.3133C217.326 16.1077 217.326 15.8978 217.326 15.6003C215.089 16.2214 213.056 16.9125 211.95 18.5528C211.659 18.9749 211.5 19.4659 211.489 19.9699C211.438 24.9869 211.429 29.9994 211.401 35.0164C211.401 35.55 211.313 36.0836 211.323 36.6173C211.332 37.1509 211.032 37.3696 210.401 37.3696C209.391 37.3696 208.381 37.3696 207.371 37.3215C206.91 37.3215 206.698 37.1159 206.703 36.7179C206.768 29.4921 206.818 22.2648 206.855 15.0361C206.855 11.4713 206.883 7.9065 206.855 4.33734C206.855 3.7556 207.063 3.49753 207.856 3.50191C212.005 3.50191 216.154 3.48004 220.304 3.50191C221.876 3.50191 221.978 3.66811 222.042 4.87533C222.093 5.88134 222.084 6.89611 222.148 7.90213C222.164 8.10851 222.106 8.3139 221.983 8.48473C221.859 8.65555 221.679 8.78169 221.47 8.84253C220.215 9.44445 218.865 9.8478 217.473 10.0366V4.85346C215.873 4.85346 214.439 4.85346 213.001 4.85346C211.562 4.85346 211.484 4.85346 211.484 5.98632C211.484 9.01894 211.484 12.0501 211.484 15.0798L211.493 15.8103Z" fill="white"/>
<path d="M307 3.69437C303.459 14.5156 299.162 25.0831 296.068 35.9699C296.502 36.0137 296.769 36.0618 297.032 36.0618C298.572 36.0618 300.116 36.0268 301.643 36.0399C302.228 36.0399 302.366 35.865 302.353 35.4582C302.315 34.6008 302.33 33.742 302.399 32.8863C302.419 32.705 302.481 32.53 302.578 32.3731C302.676 32.2162 302.808 32.081 302.966 31.9765C303.999 31.4035 305.114 30.9136 306.193 30.4019C306.421 30.328 306.656 30.2738 306.894 30.24C306.894 30.4675 306.945 30.6337 306.945 30.7955C306.899 32.6282 306.806 34.4565 306.816 36.2848C306.816 36.9322 306.433 37.129 305.7 37.1596C302.237 37.2209 298.784 37.2996 295.312 37.3215C294.284 37.3215 293.251 37.1771 292.223 37.1028C291.656 37.0634 291.416 36.871 291.541 36.4205C292.196 34.0935 292.707 31.7359 293.496 29.4221C296.225 21.4352 299.028 13.4658 301.832 5.4877C301.915 5.25151 301.984 5.01093 302.071 4.72662H296.778V6.82614C296.778 7.70093 296.755 8.57573 296.778 9.45052C296.778 9.85293 296.594 10.0716 296.073 9.9229C294.893 9.59486 293.722 9.24057 292.583 8.84691C292.47 8.78357 292.375 8.69436 292.307 8.58741C292.24 8.48045 292.201 8.35917 292.196 8.23456C292.159 6.86113 292.196 5.48769 292.168 4.11427C292.168 3.78622 292.306 3.60688 292.758 3.58938C292.933 3.58938 293.108 3.54565 293.284 3.54565C297.535 3.54565 301.784 3.55877 306.032 3.58502C306.318 3.58939 306.613 3.66375 307 3.69437Z" fill="white"/>
<path d="M176.804 28.6435C178.35 29.0107 179.816 29.6309 181.138 30.4762C181.225 30.5571 181.292 30.655 181.335 30.763C181.378 30.871 181.395 30.9866 181.387 31.1017C181.387 33.0263 181.327 34.9508 181.331 36.8797C181.331 37.3171 180.995 37.3652 180.561 37.374C178.182 37.409 175.808 37.4527 173.429 37.4746C171.732 37.4746 170.04 37.4746 168.357 37.4746C167.929 37.4726 167.501 37.4463 167.076 37.3959C166.439 37.3171 166.089 37.0372 166.098 36.5211C166.098 36.2936 166.098 36.0618 166.098 35.8344C166.098 26.1504 166.098 16.4649 166.098 6.77804C166.098 5.90324 166.029 5.02845 165.946 4.15365C165.909 3.76437 166.112 3.55004 166.587 3.53692C167.669 3.49609 168.752 3.48151 169.837 3.49318C170.428 3.49318 170.635 3.75999 170.64 4.20614C170.677 8.14271 170.769 12.0793 170.778 15.9853C170.778 22.4004 170.763 28.8258 170.732 35.2614C170.732 35.7906 170.935 35.9568 171.617 35.9437C173.06 35.9175 174.499 35.9131 175.942 35.9437C176.67 35.9437 176.832 35.7119 176.827 35.2308C176.827 33.2843 176.827 31.3379 176.827 29.3959L176.804 28.6435Z" fill="white"/>
<path d="M251.577 20.3942L251.964 35.3794C251.964 35.7425 251.997 36.1055 252.029 36.4686C252.098 37.2165 252.029 37.3171 251.07 37.3696C250.111 37.4221 249.253 37.3958 248.345 37.3696C247.69 37.3696 247.391 37.1334 247.377 36.5866C247.248 30.4631 247.026 24.3395 246.943 18.216C246.879 13.562 246.976 8.90814 247.008 4.25424C247.008 3.46692 247.091 3.40568 248.128 3.37944C248.986 3.35757 249.848 3.37944 250.706 3.37944C251.374 3.37944 251.651 3.61126 251.628 4.16675C251.572 8.78129 251.559 13.3958 251.531 18.0104V20.3592L251.577 20.3942Z" fill="white"/>
<path d="M162.668 22.7955C162.76 25.8573 162.917 31.2854 163.097 36.7179C163.097 37.1071 162.935 37.3171 162.456 37.3302C161.423 37.3652 160.386 37.3827 159.353 37.3783C158.671 37.3783 158.431 37.1028 158.431 36.5735C158.302 30.45 158.094 24.3264 158.011 18.2028C157.947 13.5489 158.011 8.89501 158.053 4.24111C158.053 3.50628 158.159 3.4188 159.141 3.39255C159.999 3.36631 160.861 3.39255 161.718 3.39255C162.419 3.39255 162.705 3.62437 162.7 4.20611C162.659 9.62109 162.668 15.0361 162.668 22.7955Z" fill="white"/>
</g>
<defs>
<clipPath id="clip0_230_281">
<rect width="307" height="37.0169" fill="white" transform="translate(0 0.86441)"/>
</clipPath>
</defs>
</svg>
