<svg width="30" height="30" viewBox="0 0 30 30" fill="none" xmlns="http://www.w3.org/2000/svg">
<path d="M30 15C30 23.2838 23.2838 30 15 30C6.7162 30 0 23.2838 0 15C0 6.7162 6.7162 0 15 0C23.2855 0 30 6.7162 30 15Z" fill="white"/>
<path d="M7.40034 15.5042L7.46504 15.4025L11.3671 9.29813C11.4242 9.20873 11.5582 9.218 11.6014 9.31506C12.2533 10.7761 12.8158 12.593 12.5523 13.7242C12.4398 14.1896 12.1315 14.8199 11.7848 15.4025C11.7401 15.4872 11.6908 15.5705 11.6384 15.6506C11.6137 15.6876 11.5721 15.7092 11.5274 15.7092H7.51438C7.40648 15.7092 7.34331 15.592 7.40034 15.5042Z" fill="#2081E2"/>
<path d="M24.7934 16.6383V17.6046C24.7934 17.66 24.7595 17.7094 24.7101 17.7309C24.4081 17.8604 23.374 18.3351 22.944 18.933C21.8468 20.4602 21.0084 22.644 19.1344 22.644H11.3163C8.54545 22.644 6.30005 20.3909 6.30005 17.6107V17.5213C6.30005 17.4474 6.36015 17.3873 6.43412 17.3873H10.7924C10.8787 17.3873 10.9419 17.4674 10.9342 17.5522C10.9033 17.8357 10.9557 18.1255 11.0898 18.389C11.3487 18.9145 11.885 19.2428 12.4645 19.2428H14.622V17.5583H12.4891C12.3797 17.5583 12.315 17.432 12.3782 17.3426C12.4013 17.3071 12.4275 17.2701 12.4552 17.2285C12.6571 16.9419 12.9453 16.4965 13.2319 15.9895C13.4277 15.6474 13.6172 15.2821 13.7698 14.9153C13.8006 14.8491 13.8253 14.7813 13.8499 14.715C13.8915 14.5979 13.9347 14.4884 13.9655 14.379C13.9963 14.2866 14.021 14.1895 14.0457 14.0985C14.1181 13.7872 14.1489 13.4574 14.1489 13.1153C14.1489 12.9812 14.1427 12.841 14.1304 12.7069C14.1243 12.5605 14.1058 12.4141 14.0873 12.2677C14.0749 12.1382 14.0518 12.0103 14.0272 11.8763C13.9963 11.6805 13.9532 11.4864 13.9039 11.2906L13.8869 11.2167C13.8499 11.0826 13.8191 10.9547 13.776 10.8206C13.6542 10.3999 13.514 9.98993 13.366 9.6062C13.3121 9.45363 13.2504 9.30723 13.1888 9.16083C13.0979 8.94043 13.0054 8.7401 12.9206 8.55053C12.8775 8.46423 12.8405 8.38563 12.8035 8.3055C12.7619 8.21457 12.7188 8.12367 12.6756 8.03733C12.6448 7.97107 12.6093 7.90943 12.5847 7.8478L12.3212 7.3608C12.2842 7.29453 12.3458 7.21593 12.4182 7.23597L14.0672 7.6829H14.0719C14.0749 7.6829 14.078 7.68443 14.078 7.68443L14.2953 7.74453L14.5342 7.81233L14.622 7.837V6.85687C14.622 6.38373 15.0011 6 15.4696 6C15.7039 6 15.9166 6.09553 16.0691 6.2512C16.2217 6.40687 16.3173 6.61953 16.3173 6.85687V8.31167L16.4929 8.36097C16.5068 8.3656 16.5207 8.37177 16.533 8.381C16.5762 8.41337 16.6378 8.46117 16.7164 8.5197C16.778 8.56903 16.8443 8.62913 16.9245 8.69077C17.0832 8.8187 17.2727 8.9836 17.4808 9.17313C17.5363 9.22093 17.5902 9.27023 17.6395 9.31957C17.9077 9.5692 18.2082 9.86203 18.4948 10.1857C18.575 10.2766 18.6536 10.369 18.7337 10.4661C18.8139 10.5648 18.8986 10.6619 18.9726 10.759C19.0697 10.8884 19.1745 11.0225 19.2654 11.1627C19.3085 11.229 19.3579 11.2968 19.3995 11.3631C19.5166 11.5403 19.6199 11.7237 19.7185 11.9071C19.7601 11.9918 19.8032 12.0843 19.8402 12.1752C19.9496 12.4203 20.036 12.6699 20.0914 12.9196C20.1084 12.9735 20.1207 13.0321 20.1269 13.0845V13.0968C20.1454 13.1708 20.1515 13.2494 20.1577 13.3295C20.1824 13.5853 20.17 13.8412 20.1145 14.0985C20.0914 14.208 20.0606 14.3112 20.0236 14.4206C19.9866 14.5254 19.9496 14.6348 19.9019 14.7381C19.8094 14.9523 19.7 15.1665 19.5705 15.3669C19.5289 15.4408 19.4796 15.5194 19.4303 15.5934C19.3764 15.672 19.3209 15.746 19.2716 15.8184C19.2038 15.9109 19.1313 16.008 19.0573 16.0943C18.9911 16.1852 18.9233 16.2761 18.8493 16.3563C18.746 16.478 18.6474 16.5936 18.5442 16.7046C18.4825 16.777 18.4162 16.851 18.3484 16.9172C18.2822 16.9912 18.2144 17.0575 18.1527 17.1191C18.0495 17.2224 17.9632 17.3025 17.8907 17.3688L17.7212 17.5244C17.6965 17.546 17.6642 17.5583 17.6303 17.5583H16.3173V19.2428H17.9693C18.3392 19.2428 18.6906 19.1118 18.9741 18.8714C19.0712 18.7866 19.495 18.4198 19.9959 17.8666C20.0128 17.8481 20.0344 17.8342 20.0591 17.828L24.6223 16.5088C24.7071 16.4842 24.7934 16.5489 24.7934 16.6383Z" fill="#2081E2"/>
</svg>
