<svg width="471" height="126" viewBox="0 0 471 126" fill="none" xmlns="http://www.w3.org/2000/svg">
<g clip-path="url(#clip0_1586_885)">
<path d="M237.955 95.1622C238.109 98.6671 236.227 98.7121 233.882 98.8924C229.746 99.2632 225.601 98.2854 222.061 96.1035C218.575 94.0106 214.826 92.3833 211.251 90.4457C209.936 89.7347 208.761 88.7183 207.422 87.7469C207.168 90.5258 206.804 93.55 206.645 96.5842C206.55 98.3817 205.853 99.0526 204.05 99.0426C197.637 99.0126 191.224 99.1377 184.81 99.1127C183.744 99.0855 182.696 98.8223 181.743 98.3416C177.427 96.2153 173.142 94.0223 168.886 91.7625C166.566 90.5258 163.573 89.9199 163.633 86.1096L162.986 86.2949C162.637 86.9758 162.239 87.6367 161.96 88.3427C160.854 91.1316 159.674 93.8954 158.748 96.7444C158.071 98.8073 156.965 99.5483 154.765 99.5383C144.477 99.4782 134.165 99.2028 123.892 99.7886C116.637 100.204 110.174 98.9625 104.089 95.012C101.455 93.3046 98.4378 92.1981 95.7389 90.5808C95.3047 90.2782 94.9446 89.8802 94.6858 89.417C94.427 88.9538 94.2763 88.4375 94.2451 87.9071C95.8086 68.6253 97.5066 49.3536 99.1249 30.0818C99.2643 28.3744 99.9764 27.8938 101.615 27.7686C106.863 27.3681 111.738 28.034 116.319 31.0031C119.575 33.116 123.17 34.7333 126.716 36.3555C128.638 37.2368 129.146 38.4484 128.956 40.4562C127.961 51.1661 127.054 61.886 126.123 72.6009C125.984 74.173 125.889 75.7502 125.76 77.5377L132.019 77.8231C133.378 74.5336 134.847 71.0287 136.281 67.5088C141.44 54.8612 146.585 42.2053 151.717 29.5411C152.33 28.0139 153.082 27.3981 154.775 27.298C158.937 27.0476 162.742 27.6434 166.406 29.8865C170.071 32.1297 174.065 33.852 177.859 35.8648C178.919 36.4976 179.946 37.1844 180.936 37.9227C181.185 35.219 181.564 32.4151 181.653 29.6362C181.723 27.6334 182.589 27.1978 184.417 27.0476C189.177 26.6621 193.549 27.3981 197.707 29.9817C201.078 32.0746 204.782 33.6317 208.283 35.5394C209.528 36.2153 210.598 37.2267 211.948 38.2382C212.182 35.6746 212.57 32.9458 212.645 30.202C212.715 27.7235 213.546 26.8724 216.19 26.7522C221.229 26.5269 225.89 27.2529 230.551 30.7578C230.023 26.3416 232.543 26.627 235.032 26.647C240.176 26.6921 245.32 26.612 250.468 26.5719C254.134 26.5244 257.751 27.4152 260.98 29.1605C265.302 31.4687 269.694 33.6367 274.041 35.8949C275.734 36.7711 277.402 37.6974 279.055 38.6487C285.573 42.3939 287.739 48.5775 287.465 55.5272C287.151 63.4281 286.31 71.3241 285.269 79.165C284.174 87.3914 277.357 95.8382 266.641 98.5219C266.067 98.6107 265.484 98.6342 264.904 98.592C262.827 98.592 260.751 98.6821 258.679 98.592C251.768 98.2315 244.403 100.399 237.955 95.1622ZM218.894 88.0824C220.582 68.4351 222.245 49.0281 223.918 29.5561H215.911C214.696 43.0749 213.501 56.4084 212.301 69.7619C211.576 69.2004 211.01 68.4582 210.658 67.6089C204.872 55.5922 199.078 43.5889 193.275 31.5989C192.922 30.8679 192.205 29.8515 191.577 29.7864C189.396 29.5611 187.175 29.7013 184.84 29.7013C183.142 49.4387 181.484 68.7555 179.811 88.2176H187.813C189.033 74.6988 190.238 61.2952 191.443 47.9066C191.999 48.2464 192.432 48.7572 192.678 49.3636C198.56 61.6006 204.454 73.8309 210.359 86.0546C210.763 86.8807 211.689 87.8821 212.486 87.9923C214.502 88.2676 216.584 88.0824 218.894 88.0824ZM228.703 87.8721C234.44 87.8721 239.972 87.9071 245.504 87.8721C255.985 87.797 264.923 80.6821 266.572 70.2476C267.824 62.348 268.541 54.3719 268.718 46.3745C268.952 36.2504 261.433 29.1605 251.35 29.1906C246.211 29.1906 241.067 29.2707 235.914 29.3358C235.202 29.3358 234.494 29.4559 233.693 29.5311C232.05 49.0482 230.377 68.365 228.703 87.8721ZM161.741 29.9266C160.167 29.9266 158.907 30.0768 157.697 29.8916C155.556 29.5661 154.675 30.6276 153.933 32.4651C146.666 50.4601 139.363 68.4384 132.024 86.4C131.755 87.0609 131.581 87.7619 131.272 88.7283C133.677 88.7283 135.818 88.8835 137.919 88.6482C138.393 88.5545 138.84 88.3576 139.23 88.0713C139.62 87.7849 139.942 87.4161 140.175 86.9909C141.594 83.7964 142.714 80.4818 144.084 77.2523C144.378 76.5614 145.234 75.6351 145.846 75.6251C151.961 75.4999 158.081 75.55 164.27 75.55C165.127 79.3603 165.898 83.0304 166.825 86.6604C166.999 87.3464 167.771 88.3427 168.318 88.3928C170.609 88.5881 172.929 88.4729 175.623 88.4729C170.962 68.7956 166.371 49.4537 161.741 29.9266ZM97.2477 89.0087H100.31C107.943 88.9686 115.577 88.9085 123.215 88.8885C130.854 88.8685 130.903 88.8885 131.182 81.0877C131.151 80.8573 131.091 80.6318 131.003 80.4167H106.016C107.445 63.6234 108.855 47.0754 110.269 30.4624H102.262C100.594 49.9694 98.9357 69.3063 97.2477 89.0237V89.0087Z" fill="white"/>
<path d="M30.7622 12.5875C30.7622 9.71347 30.7622 6.83948 30.7622 3.96048C30.7622 0.68593 31.1905 0.0800882 34.4171 0.0400325C40.4322 -0.0350718 46.4473 0.0400325 52.7263 0.0400325V12.7927L53.2491 12.993C55.3504 10.2642 57.5264 7.59052 59.5281 4.78662C60.8825 2.88899 62.3066 2.43335 64.383 3.60999C67.2711 5.24726 70.2388 6.73934 73.1866 8.27147C75.736 9.59831 77.0406 11.6411 76.7369 14.5602C75.8207 23.3474 75.0389 32.1596 73.824 40.9068C73.5401 42.9346 71.9567 44.9424 70.5625 46.6147C68.8346 48.6976 68.1524 50.7705 68.506 53.4893C69.7807 63.3279 70.916 73.1816 71.9915 83.0303C72.1658 84.5975 72.6887 85.3135 74.302 85.5989C77.7876 86.2247 79.7793 88.0122 80.3768 91.9827C81.6217 100.47 83.4591 108.866 85.0774 117.298C85.2815 118.339 85.6102 119.361 86.0085 120.863C84.8334 121.364 83.5586 122.205 82.1943 122.415C75.9701 123.371 69.7458 124.528 63.4768 124.918C52.1387 125.594 40.7708 126.085 29.4178 126.02C22.6658 125.98 15.8938 124.913 9.18159 123.937C6.80643 123.592 4.49599 122.32 2.32 121.163C0.298373 120.087 -0.368867 118.254 0.153968 115.851C2.0063 107.384 3.7939 98.9023 5.43709 90.3905C5.89022 88.0573 6.79647 86.4751 9.20649 86.1847C10.9045 85.9794 11.2879 84.983 11.4522 83.4759C12.541 73.462 13.683 63.4397 14.878 53.4091C15.1867 50.8356 14.8083 48.7877 12.7518 46.9001C10.1874 44.5769 9.19155 41.3474 8.83802 37.9327C8.116 30.8829 7.3691 23.8331 6.67696 16.7833C6.17903 11.8464 7.73259 9.15769 12.214 6.95964C14.5942 5.78801 17.0241 4.70651 19.3943 3.51486C21.0624 2.6787 22.2973 2.88899 23.4824 4.45116C25.6285 7.27007 27.929 9.95881 30.1647 12.7277L30.7622 12.5875ZM19.6184 6.76437C16.9992 8.26645 14.7336 9.62834 12.4282 10.9101C10.5011 11.9816 9.87373 13.6189 10.0978 15.7318C10.9045 23.2773 11.6265 30.8278 12.5277 38.3633C12.7369 40.1057 13.5236 41.778 14.0216 43.3702C26.5547 32.8306 41.2488 33.2111 55.9629 33.6267C44.6647 30.287 33.3266 31.2684 21.9238 33.151C25.9522 31.5087 30.0153 30.1218 34.1184 28.8701C35.9707 28.3043 36.8371 27.368 36.7773 25.3001C36.6479 20.6286 36.8122 15.9521 36.6728 11.2806C36.5732 7.77577 36.618 4.52626 40.9252 3.26952C39.5708 3.15936 38.4355 3.35964 37.2952 3.26952C34.8055 3.05922 34.1034 4.23586 34.2379 6.55408C34.3997 9.05583 34.3764 11.5662 34.1681 14.0645C34.0785 15.0409 33.3515 16.5429 32.5996 16.7783C28.9049 17.9249 25.1057 18.726 21.1072 19.7073C20.6043 15.3313 20.1412 11.2957 19.6184 6.76437ZM56.8443 62.1913L65.7374 63.6233C61.5697 60.9196 61.6095 60.9196 61.4352 56.1129C61.3093 54.751 61.0998 53.3982 60.8078 52.0623L59.812 52.1824C59.812 54.716 59.812 57.2445 59.812 59.773C59.812 61.5705 59.09 61.7758 57.6609 60.8845C55.1413 59.3524 54.8724 56.919 54.9421 54.3404C54.977 53.0086 54.9421 51.7218 53.2541 51.5315C47.6872 50.9007 42.175 49.4587 36.4786 50.6053C33.6702 51.171 32.4453 52.3276 32.3058 55.1566C32.1998 55.9257 32.0232 56.6834 31.778 57.4197L31.1208 57.2845V50.5051C27.1373 51.2762 23.3928 51.9621 19.6931 52.7482C19.4256 52.8286 19.1809 52.9718 18.9792 53.1659C18.7775 53.3601 18.6245 53.5996 18.5329 53.8648C18.0897 57.0292 17.776 60.2136 17.3976 63.5783C18.5777 63.413 19.3146 63.3279 20.0416 63.2078C22.9098 62.7521 25.7679 62.2564 28.641 61.8509C29.1888 61.7758 29.7863 62.0512 30.3589 62.1613C29.9618 62.6843 29.4962 63.1508 28.9747 63.5482C28.3715 63.8167 27.7292 63.9858 27.0725 64.0489C24.6326 64.5496 22.1579 64.8701 19.7628 65.516C18.7669 65.7863 17.303 66.5724 17.1436 67.3535C16.5212 70.3226 16.3469 73.3869 15.9735 76.7165L29.129 74.5084C29.2834 75.1694 29.3879 75.64 29.5074 76.1057C29.6269 76.5713 29.7763 77.0169 29.9058 77.4475C32.3955 77.057 32.9333 76.6614 32.998 74.5685C33.0826 71.9048 32.8436 69.2311 32.9034 66.5574C32.9731 63.4831 32.9432 60.3638 33.4561 57.3496C34.1532 53.2639 36.3093 51.7418 40.4272 51.7719C41.8364 51.7719 43.2456 51.867 44.6547 51.9321C51.6259 52.2375 53.5031 54.1101 53.8517 61.1649C53.9961 64.079 53.9861 67.003 54.0409 69.9221C54.0757 71.6745 54.0409 73.4269 54.1454 75.1744C54.26 77.2222 55.3006 78.1785 57.5165 77.763C57.6908 76.9468 57.8551 76.1607 58.0592 75.1844L66.5242 76.6214L66.6736 75.9004C64.4777 75.3747 62.1921 75.0342 60.1107 74.2481C59.0551 73.8575 57.6808 72.746 57.5264 71.7947C57.0335 68.8105 57.0484 65.7112 56.8443 62.1913ZM60.6485 41.4075C49.6441 36.6659 38.3907 36.1702 26.968 39.4798C26.6392 39.6187 26.347 39.8326 26.1145 40.1046C25.8821 40.3766 25.7157 40.6992 25.6285 41.047C25.2849 43.7457 25.1306 46.4695 24.8916 49.5588C38.1367 47.3457 51.0233 47.9065 63.91 50.1797C63.5213 49.7361 62.9948 49.4379 62.4162 49.3335C59.8269 48.7877 57.2078 48.3321 54.6484 47.6812C53.9761 47.5059 53.0549 46.6798 52.9902 46.094C52.7761 44.1413 52.9105 42.1485 52.9105 39.9254L60.6485 41.4075ZM19.479 50.8205C23.0442 49.2484 24.1646 46.114 23.089 41.032C19.6931 41.7029 18.5478 44.7071 19.479 50.8306V50.8205ZM61.8037 6.17855L61.0469 5.9983C60.0261 8.23141 58.9754 10.4545 57.9845 12.7026C56.6401 15.7569 57.0285 16.3977 60.6485 17.0787C61.0203 13.447 61.3987 9.81694 61.7838 6.18857L61.8037 6.17855Z" fill="white"/>
<path d="M305.112 85.7891C305.809 84.3421 306.606 82.9452 307.183 81.4481C312.616 66.8378 318.317 52.3477 326.419 38.9741C327.763 36.751 329.705 34.8934 331.533 32.6703C333.793 34.578 335.775 36.0701 337.508 37.8225C337.946 38.2681 337.812 39.6551 337.508 40.4211C333.45 50.0044 329.312 59.5527 325.189 69.111L324.093 71.6645C328.884 71.5994 332.225 70.0122 334.764 65.6962C340.033 56.7338 345.888 48.1218 351.57 39.4047C353.562 36.3455 358.929 36.6309 360.742 39.8553C361.011 40.356 360.836 41.1371 360.742 41.763C359.606 48.5875 358.441 55.4019 357.291 62.2264C357.196 62.7922 357.157 63.368 357.077 64.0239C357.855 64.3017 358.606 64.6485 359.323 65.0603C360.941 66.1869 360.757 68.1346 358.929 68.8256C356.574 69.7218 355.503 71.4592 354.946 73.8325C354.099 77.5577 353.198 81.2829 352.048 84.9229C351.052 88.0072 350.634 88.1474 346.854 88.6231C345.36 83.4509 347.457 78.3388 347.432 72.9763C345.634 73.3468 343.872 73.3619 342.482 74.0929C340.928 74.9059 339.613 76.1144 338.668 77.5978C337.627 79.3402 337.244 81.4832 336.562 83.4509C335.974 85.1633 334.934 85.9293 333.136 85.0581C332.917 84.948 332.673 84.8779 332.444 84.7827C328.057 82.9953 328.057 82.9953 328.112 78.5791L321.768 76.4562L302.005 124.303C299.271 123.261 296.931 122.335 296.179 119.406C296.019 118.843 295.677 118.35 295.208 118.004C292.29 115.936 291.464 112.962 291.722 109.642C292.554 99.7686 293.166 89.8648 294.471 80.0512C295.85 69.6517 297.897 59.3424 299.699 49.008C300.287 45.6284 301.925 45.2228 304.953 46.7399C309.349 48.9379 310.291 51.9421 309.28 56.6737C307.243 66.1869 305.794 75.8303 304.106 85.4186L305.112 85.7891ZM352.61 51.9621L351.809 51.5115L342.009 66.8328C344.474 66.5674 346.157 66.6025 347.691 66.1418C348.17 65.9733 348.607 65.7026 348.972 65.3482C349.338 64.9939 349.622 64.5643 349.807 64.089C350.878 60.0834 351.699 56.0128 352.61 51.9621Z" fill="white"/>
<path d="M388.019 86.8156C384.647 85.1232 383.413 82.6398 383.861 79.2801C384.264 76.2759 384.707 73.2417 385.175 69.9221L374.106 79.2851C373.852 79.5004 373.608 79.7057 373.329 79.911C368.908 83.3858 365.123 82.7699 362.235 77.9082C361.781 76.9398 361.707 75.8351 362.026 74.8139C364.919 65.4258 367.862 56.0528 370.949 46.7299C371.447 45.2278 372.642 43.911 373.648 42.6092C374.744 41.1972 376.018 40.9018 377.726 41.9182C379.434 42.9346 379.578 43.921 378.961 45.7836C376.212 54.1602 373.688 62.6119 371.089 71.0386C371.093 71.3332 371.135 71.626 371.213 71.9099C372.558 70.7182 373.792 69.7068 374.938 68.6053C382.681 61.1399 388.422 52.1824 393.859 42.9997C394.447 41.9983 395.851 40.5964 396.573 40.7666C398.216 41.1621 399.69 42.3438 401.134 43.3552C401.393 43.5405 401.348 44.4918 401.134 44.9624C395.657 57.7252 392.634 71.2439 388.87 84.5174C388.701 85.2584 388.372 85.9193 388.019 86.8156Z" fill="white"/>
<path d="M430.433 63.3129C431.369 66.0968 430.931 68.2498 428.69 69.9321C421.055 75.6534 413.412 81.3814 405.76 87.116C403.908 88.4979 402.215 88.1174 400.676 86.4951C397.912 83.5761 396.971 80.0762 398.186 76.326C399.889 71.1188 401.946 66.0217 403.927 60.9046C406.816 53.4693 409.778 46.064 412.701 38.6387C412.851 38.2531 412.9 37.8275 413.015 37.432C414.13 33.5566 415.136 32.4601 416.998 33.091C419.488 33.9522 421.36 37.8275 420.359 40.4361C416.376 50.7755 412.392 61.0898 408.379 71.4142C408.025 72.3254 407.667 73.2367 407.079 74.7388C415.151 70.7082 421.53 64.3894 430.433 63.3129Z" fill="white"/>
<path d="M445.192 46.2893C442.643 46.79 440.541 47.2056 438.455 47.6662C435.134 48.4072 434.725 48.1669 434.083 44.8973C433.894 43.936 433.799 42.9547 433.625 41.728C436.558 41.1071 439.316 40.5964 442.035 39.9304C444.659 39.2896 447.214 38.3432 449.853 37.8175C451.431 37.5021 453.124 37.8175 454.753 37.7074C457.566 37.5121 460.359 37.0815 463.173 36.9814C468.152 36.8061 470.004 38.4284 471 43.7307C466.957 43.951 462.944 44.4217 458.95 44.3165C455.465 44.2264 453.473 45.5082 452.278 48.8228C448.24 60.0083 444.022 71.1238 439.789 82.2342C439.61 82.6453 439.346 83.0131 439.013 83.3128C438.681 83.6125 438.288 83.8371 437.862 83.9716C437.24 84.0968 436.169 83.4709 435.741 82.8651C433.7 79.9761 433.63 76.7816 434.83 73.5622C437.818 65.6111 440.805 57.6851 443.838 49.7441C444.221 48.7577 444.62 47.7563 445.192 46.2893Z" fill="white"/>
<path d="M241.012 37.9027C245.2 37.9027 249.184 37.6073 253.102 37.9828C257.021 38.3583 260.367 42.2187 260.487 46.6048C260.631 51.7469 260.113 56.9141 259.785 62.0662C259.632 64.3117 259.365 66.5478 258.983 68.7655C257.942 75.0793 253.351 79.1499 246.988 79.3602C243.935 79.4604 240.873 79.3602 237.447 79.3602C238.647 65.481 239.827 51.7569 241.012 37.9027Z" fill="white"/>
<path d="M147.798 67.2935L157.035 42.9096H157.533C159.201 50.9207 160.874 58.9669 162.602 67.2734L147.798 67.2935Z" fill="white"/>
</g>
<defs>
<clipPath id="clip0_1586_885">
<rect width="471" height="126" fill="white"/>
</clipPath>
</defs>
</svg>
