<svg xmlns="http://www.w3.org/2000/svg" xmlns:xlink="http://www.w3.org/1999/xlink" id="Ebene_1" x="0px" y="0px" viewBox="0 0 1024 305" style="enable-background:new 0 0 1024 305;" xml:space="preserve"><style type="text/css">	.st0{fill:url(#SVGID_1_);}	.st1{fill:url(#SVGID_00000017490078813358735730000010093569157153737604_);}	.st2{fill:none;}	.st3{fill:#39395B;}	.st4{fill:#CDCED4;}	.st5{fill:#E3E2E7;}	.st6{fill:#464863;}	.st7{fill:#A1A1AF;}	.st8{fill:url(#SVGID_00000089542000389520275160000016306814719596486550_);}	.st9{fill:#5C5D76;}	.st10{fill:#B5B6C1;}	.st11{fill:url(#SVGID_00000063603892794171416840000002754578325406068381_);}	.st12{fill:#5C5D74;}	.st13{fill:#71748A;}	.st14{fill:#8A8A9A;}	.st15{fill:url(#SVGID_00000162345317676498441090000015966864087919761799_);}	.st16{fill:url(#SVGID_00000085244373287250335850000014514066677632699309_);}	.st17{fill:url(#SVGID_00000147180806680446757480000007504323155316120742_);}	.st18{fill:url(#SVGID_00000121976179472174674670000009336132559775233445_);}	.st19{fill:url(#SVGID_00000089540815880948190300000005848395956470793351_);}	.st20{fill:url(#SVGID_00000146489361806890476360000009245868255291907228_);}	.st21{fill:url(#SVGID_00000041297757067811906030000005911974535272637601_);}	.st22{fill:url(#SVGID_00000173851100889811413020000011623457004593324966_);}	.st23{fill:url(#SVGID_00000024702824530599942790000002354733135357355426_);}	.st24{fill:url(#SVGID_00000007403300128290119390000010866752829448279195_);}	.st25{fill:url(#SVGID_00000159453894244530217780000004731470770286447517_);}	.st26{fill:url(#SVGID_00000060017455583700039990000000097647866709853876_);}</style><linearGradient id="SVGID_1_" gradientUnits="userSpaceOnUse" x1="31.76" y1="155.4051" x2="250.08" y2="155.4051">	<stop offset="0" style="stop-color:#00FFFC"></stop>	<stop offset="0.1816" style="stop-color:#74FF74"></stop>	<stop offset="0.3799" style="stop-color:#FFCE1A"></stop>	<stop offset="0.6034" style="stop-color:#FA7781"></stop>	<stop offset="0.8436" style="stop-color:#FF2ADF"></stop>	<stop offset="1" style="stop-color:#FF2ADF"></stop></linearGradient><path class="st0" d="M196.64,125.51l53.44,31.54v43.19c0,10.91-5.76,21-15.16,26.55l-11.89,7.01l-26.85,15.84l-38.8,22.89 c-0.6,0.36-1.22,0.69-1.84,1c-0.6,0.31-1.21,0.59-1.83,0.85c-0.01,0-0.03,0.01-0.05,0.02c-0.32,0.13-0.64,0.26-0.96,0.38 c-1.7,0.65-3.45,1.14-5.22,1.47c-0.23,0.05-0.46,0.1-0.7,0.13c-1,0.17-2.01,0.29-3.02,0.35c-0.34,0.03-0.68,0.04-1.02,0.05 c-0.26,0.01-0.53,0.02-0.79,0.02c-5.36,0.04-10.74-1.32-15.55-4.08l-40.47-23.21l-0.25-0.14l-38.43-22.04 c-9.58-5.49-15.49-15.69-15.49-26.73v-88.96c0-5.55,1.49-10.89,4.2-15.52c2.61-4.49,6.36-8.32,10.99-11.04l39.67-23.34l39.92-23.48 c9.52-5.6,21.33-5.67,30.92-0.19l39.82,22.78l37.28,21.32c0.36,0.2,0.71,0.41,1.05,0.63c1.37,0.85,2.66,1.81,3.86,2.85 c3.3,2.87,5.93,6.39,7.75,10.31L196.64,125.51z"></path><linearGradient id="SVGID_00000147904021494678981500000011981525239437084062_" gradientUnits="userSpaceOnUse" x1="5.81" y1="155.66" x2="276.03" y2="155.66">	<stop offset="0" style="stop-color:#00FFFC"></stop>	<stop offset="0.1816" style="stop-color:#74FF74"></stop>	<stop offset="0.3799" style="stop-color:#FFCE1A"></stop>	<stop offset="0.6034" style="stop-color:#FA7781"></stop>	<stop offset="0.8436" style="stop-color:#FF2ADF"></stop>	<stop offset="1" style="stop-color:#FF2ADF"></stop></linearGradient><path style="fill:url(#SVGID_00000147904021494678981500000011981525239437084062_);" d="M254.06,63.61l-89.19-51.67 C158.17,8.05,150.53,6,142.78,6c-7.76,0-15.4,2.06-22.11,5.95L27.76,65.84C14.22,73.7,5.81,88.3,5.81,103.96v104.15 c0,15.62,8.38,30.21,21.88,38.07l91.23,53.15c6.72,3.92,14.39,5.99,22.18,5.99c7.92,0,15.7-2.14,22.51-6.19l90.88-54.02 c13.29-7.9,21.54-22.42,21.54-37.88V101.74C276.03,86.07,267.61,71.47,254.06,63.61z M263.04,207.23c0,10.96-5.77,21.11-15.19,26.7 l-90.88,54.03c-9.7,5.77-21.76,5.82-31.51,0.14l-91.23-53.15c-9.55-5.57-15.43-15.79-15.43-26.84V103.96 c0-11.08,5.9-21.32,15.48-26.87l92.91-53.9c9.64-5.59,21.53-5.59,31.16-0.01l89.2,51.68c9.58,5.56,15.49,15.8,15.49,26.88V207.23z"></path><path class="st2" d="M250.08,157.05v43.19c0,10.91-5.76,21-15.16,26.55l-11.89,7.01l-26.85,15.84l-38.8,22.89 c-0.6,0.36-1.22,0.69-1.84,1c-0.6,0.31-1.21,0.59-1.83,0.85c-0.01,0-0.03,0.01-0.05,0.02c-0.32,0.13-0.64,0.26-0.96,0.38 c-1.7,0.65-3.45,1.14-5.22,1.47c-0.23,0.05-0.46,0.1-0.7,0.13c-1,0.17-2.01,0.29-3.02,0.35c-0.34,0.03-0.68,0.04-1.02,0.05 c-0.26,0.01-0.53,0.02-0.79,0.02c-5.36,0.04-10.74-1.32-15.55-4.08l-40.47-23.21l-0.25-0.14l-38.43-22.04 c-9.58-5.49-15.49-15.69-15.49-26.73v-88.96c0-5.55,1.49-10.89,4.2-15.52c2.61-4.49,6.36-8.32,10.99-11.04l39.67-23.34l39.92-23.48 c9.52-5.6,21.33-5.67,30.92-0.19l39.82,22.78l37.28,21.32c0.36,0.2,0.71,0.41,1.05,0.63c1.37,0.85,2.66,1.81,3.86,2.85 c3.3,2.87,5.93,6.39,7.75,10.31l-50.58,29.55L250.08,157.05z"></path><path class="st3" d="M250.08,157.05v43.19c0,10.91-5.76,21-15.16,26.55l-11.89,7.01l-26.85,15.84l-38.8,22.89 c-0.6,0.36-1.22,0.69-1.84,1c-0.6,0.31-1.21,0.59-1.83,0.85c-0.01,0-0.03,0.01-0.05,0.02c-0.32,0.13-0.64,0.26-0.96,0.38 c-1.7,0.65-3.45,1.14-5.22,1.47c-0.23,0.05-0.46,0.1-0.7,0.13c-1,0.17-2.01,0.29-3.02,0.35c-0.34,0.03-0.68,0.04-1.02,0.05 c-0.26,0.01-0.53,0.02-0.79,0.02c-5.36,0.04-10.74-1.32-15.55-4.08l-40.47-23.21l-0.25-0.14l-38.43-22.04 c-9.58-5.49-15.49-15.69-15.49-26.73v-88.96c0-5.55,1.49-10.89,4.2-15.52c2.61-4.49,6.36-8.32,10.99-11.04l39.67-23.34l39.92-23.48 c9.52-5.6,21.33-5.67,30.92-0.19l39.82,22.78l37.28,21.32c0.36,0.2,0.71,0.41,1.05,0.63c1.37,0.86,2.66,1.81,3.86,2.85 c3.3,2.87,5.93,6.39,7.75,10.31l-50.58,29.55L250.08,157.05z"></path><path class="st4" d="M247.22,95.96l-50.58,29.55l-54.69-31.7l-0.18-0.1L86.62,61.74l39.92-23.48c9.52-5.6,21.33-5.67,30.92-0.19 l39.82,22.78l37.28,21.32c0.36,0.2,0.71,0.41,1.05,0.63c1.37,0.85,2.66,1.81,3.86,2.85C242.77,88.52,245.4,92.04,247.22,95.96z"></path><path class="st5" d="M247.22,95.96l-50.58,29.55l-54.69-31.7l55.33-32.96l37.28,21.32c0.36,0.2,0.71,0.41,1.05,0.63 c1.37,0.85,2.66,1.81,3.86,2.85C242.77,88.52,245.4,92.04,247.22,95.96z"></path><path class="st6" d="M196.18,188.17v61.47l-54.23-30.49h-0.01l-56.26-31.62l-53.92-30.3v-45.59c0-5.55,1.49-10.89,4.2-15.52 l49.97,28.71l0.03,0.02l55.99,32.16L196.18,188.17z"></path><path class="st7" d="M85.93,124.83c0,0.01,0,0.01,0,0.02c-0.05,5.33-0.17,18.35-0.25,31.7c-0.06,11.74-0.09,23.74,0,30.98 l-53.92-30.3v-45.59c0-5.55,1.49-10.89,4.2-15.52L85.93,124.83z"></path><linearGradient id="SVGID_00000042721277320044725490000006155229241471805832_" gradientUnits="userSpaceOnUse" x1="100.609" y1="198.7672" x2="127.0673" y2="145.1223">	<stop offset="0" style="stop-color:#FC08F9"></stop>	<stop offset="0.4888" style="stop-color:#FF6F80"></stop>	<stop offset="1" style="stop-color:#EBCD38"></stop></linearGradient><polygon style="fill:url(#SVGID_00000042721277320044725490000006155229241471805832_);" points="141.95,157.01 141.95,219.15  141.94,219.15 85.68,187.53 85.68,124.83 85.96,124.85 "></polygon><path class="st9" d="M250.08,157.05l-53.9,31.12l-54.23-31.16l-55.99-32.16l-0.03-0.02L35.96,96.12c2.61-4.49,6.36-8.32,10.99-11.04 l39.67-23.34l55.15,31.97l0.18,0.1l54.69,31.7L250.08,157.05z"></path><path class="st10" d="M141.77,93.71l-55.81,31.14l-0.03-0.02L35.96,96.12c2.61-4.49,6.36-8.32,10.99-11.04l39.67-23.34L141.77,93.71 z"></path><linearGradient id="SVGID_00000155135647215292515590000016678748834519114628_" gradientUnits="userSpaceOnUse" x1="155.7097" y1="98.1382" x2="137.2887" y2="132.7058">	<stop offset="0" style="stop-color:#00FFFC"></stop>	<stop offset="0.6173" style="stop-color:#74FF74"></stop>	<stop offset="1" style="stop-color:#EBCD38"></stop></linearGradient><polygon style="fill:url(#SVGID_00000155135647215292515590000016678748834519114628_);" points="196.64,125.51 141.95,157.01  141.95,157.01 85.96,124.85 141.77,93.71 "></polygon><path class="st12" d="M196.18,249.64l-38.8,22.89c-0.6,0.36-1.22,0.69-1.84,1c-0.6,0.31-1.21,0.59-1.83,0.85 c-0.01,0-0.03,0.01-0.05,0.02c-0.32,0.13-0.64,0.26-0.96,0.38c-1.7,0.65-3.45,1.14-5.22,1.47c-0.23,0.05-0.46,0.1-0.7,0.13 c-1,0.17-2.01,0.29-3.02,0.35c-0.34,0.03-0.68,0.04-1.02,0.05c-0.26,0.01-0.53,0.02-0.79,0.02c-5.36,0.04-10.74-1.32-15.55-4.08 l-40.47-23.21l-0.25-0.14l-38.43-22.04c-9.58-5.49-15.49-15.69-15.49-26.73v-43.37l53.92,30.3l0.25,0.15l56.01,31.47l0.01,0.01 L196.18,249.64z"></path><path class="st13" d="M141.95,219.16v57.64c-5.36,0.04-10.74-1.32-15.55-4.08l-40.47-23.21l-0.25-0.14v-61.84l0.25,0.15l56.01,31.47 L141.95,219.16z"></path><path class="st14" d="M85.93,187.68v61.83l-0.25-0.14l-38.43-22.04c-9.58-5.49-15.49-15.69-15.49-26.73v-43.37l53.92,30.3 L85.93,187.68z"></path><g>			<linearGradient id="SVGID_00000055679403003474713110000016499610489608851852_" gradientUnits="userSpaceOnUse" x1="289.7309" y1="153.9065" x2="1100.665" y2="153.9065">		<stop offset="0" style="stop-color:#00FFFC"></stop>		<stop offset="0.1816" style="stop-color:#74FF74"></stop>		<stop offset="0.3799" style="stop-color:#FFCE1A"></stop>		<stop offset="0.6034" style="stop-color:#FA7781"></stop>		<stop offset="0.8436" style="stop-color:#FF2ADF"></stop>		<stop offset="1" style="stop-color:#FF2ADF"></stop>	</linearGradient>	<path style="fill:url(#SVGID_00000055679403003474713110000016499610489608851852_);" d="M324.18,192.5v-77.18h23.89l18.05,53.07  h0.22l17.08-53.07h23.89v77.18h-15.89v-54.7h-0.22l-18.92,54.7h-13.08l-18.92-54.16h-0.22v54.16H324.18z"></path>			<linearGradient id="SVGID_00000126305053505105652160000017571241031431614348_" gradientUnits="userSpaceOnUse" x1="289.7309" y1="164.5538" x2="1100.665" y2="164.5538">		<stop offset="0" style="stop-color:#00FFFC"></stop>		<stop offset="0.1816" style="stop-color:#74FF74"></stop>		<stop offset="0.3799" style="stop-color:#FFCE1A"></stop>		<stop offset="0.6034" style="stop-color:#FA7781"></stop>		<stop offset="0.8436" style="stop-color:#FF2ADF"></stop>		<stop offset="1" style="stop-color:#FF2ADF"></stop>	</linearGradient>	<path style="fill:url(#SVGID_00000126305053505105652160000017571241031431614348_);" d="M473.57,168.28h-40.32  c0.43,9.44,5.01,14.16,13.73,14.16c2.95,0,5.62-0.79,8-2.38c2.23-1.37,3.6-2.99,4.11-4.86h13.51  c-4.11,12.54-12.83,18.81-26.16,18.81c-8.72,0-15.66-2.72-20.81-8.16c-5.15-5.44-7.73-12.52-7.73-21.24  c0-8.5,2.65-15.55,7.94-21.13c5.3-5.58,12.16-8.38,20.59-8.38c9.08,0,16.11,3.39,21.08,10.16  C472.13,151.46,474.14,159.13,473.57,168.28z M433.25,158.55h24.97c-1.44-7.93-5.51-11.89-12.21-11.89c-4.32,0-7.64,1.44-9.95,4.32  C434.33,153.15,433.39,155.67,433.25,158.55z"></path>			<linearGradient id="SVGID_00000148644322540675580100000014406691063168976023_" gradientUnits="userSpaceOnUse" x1="289.7309" y1="156.5008" x2="1100.665" y2="156.5008">		<stop offset="0" style="stop-color:#00FFFC"></stop>		<stop offset="0.1816" style="stop-color:#74FF74"></stop>		<stop offset="0.3799" style="stop-color:#FFCE1A"></stop>		<stop offset="0.6034" style="stop-color:#FA7781"></stop>		<stop offset="0.8436" style="stop-color:#FF2ADF"></stop>		<stop offset="1" style="stop-color:#FF2ADF"></stop>	</linearGradient>	<path style="fill:url(#SVGID_00000148644322540675580100000014406691063168976023_);" d="M502.1,119.86v16.75h11.24v10.27H502.1  v27.67c0,2.59,0.43,4.32,1.3,5.19c0.86,0.86,2.59,1.3,5.19,1.3c1.73,0,3.31-0.14,4.76-0.43v12c-2.16,0.36-5.15,0.54-8.97,0.54  c-11.75,0-17.62-4.43-17.62-13.3v-32.97h-9.3v-10.27h9.3v-16.75H502.1z"></path>			<linearGradient id="SVGID_00000059306858069131273100000001312965076385205911_" gradientUnits="userSpaceOnUse" x1="289.7309" y1="164.5538" x2="1100.665" y2="164.5538">		<stop offset="0" style="stop-color:#00FFFC"></stop>		<stop offset="0.1816" style="stop-color:#74FF74"></stop>		<stop offset="0.3799" style="stop-color:#FFCE1A"></stop>		<stop offset="0.6034" style="stop-color:#FA7781"></stop>		<stop offset="0.8436" style="stop-color:#FF2ADF"></stop>		<stop offset="1" style="stop-color:#FF2ADF"></stop>	</linearGradient>	<path style="fill:url(#SVGID_00000059306858069131273100000001312965076385205911_);" d="M535.4,153.8h-15.35  c0.43-6.63,3.35-11.53,8.76-14.7c4.47-2.67,10.3-4,17.51-4c16.36,0,24.54,5.3,24.54,15.89v29.08c0,6.2,0.65,10.34,1.95,12.43  h-15.57c-0.65-2.02-1.01-3.82-1.08-5.4c-4.4,4.61-10.67,6.92-18.81,6.92c-5.62,0-10.13-1.37-13.51-4.11  c-3.68-2.95-5.51-7.17-5.51-12.65c0-5.69,1.98-9.94,5.95-12.75c2.88-1.95,7.24-3.35,13.08-4.22c8.29-1.15,12.5-1.76,12.65-1.84  c3.68-0.94,5.51-2.77,5.51-5.51c0-3.03-1.01-5.12-3.03-6.27c-1.44-0.86-3.75-1.3-6.92-1.3C539.29,145.37,535.9,148.18,535.4,153.8z   M555.5,170.88v-5.73c-1.23,1.08-3.89,1.91-8,2.49c-4.69,0.72-7.78,1.41-9.3,2.05c-3.03,1.37-4.54,3.68-4.54,6.92  c0,4.76,3.13,7.13,9.4,7.13C551.36,183.74,555.5,179.45,555.5,170.88z"></path>			<linearGradient id="SVGID_00000167379153508860409840000002972299461105911681_" gradientUnits="userSpaceOnUse" x1="289.7309" y1="153.9067" x2="1100.665" y2="153.9067">		<stop offset="0" style="stop-color:#00FFFC"></stop>		<stop offset="0.1816" style="stop-color:#74FF74"></stop>		<stop offset="0.3799" style="stop-color:#FFCE1A"></stop>		<stop offset="0.6034" style="stop-color:#FA7781"></stop>		<stop offset="0.8436" style="stop-color:#FF2ADF"></stop>		<stop offset="1" style="stop-color:#FF2ADF"></stop>	</linearGradient>	<path style="fill:url(#SVGID_00000167379153508860409840000002972299461105911681_);" d="M682.3,141.26h-16.43  c-0.5-3.82-2.38-7.03-5.62-9.62c-3.24-2.59-6.99-3.89-11.24-3.89c-7.13,0-12.54,2.74-16.21,8.22c-3.17,4.69-4.76,10.77-4.76,18.27  c0,7.21,1.58,13.12,4.76,17.73c3.75,5.4,9.15,8.11,16.21,8.11c5.04,0,9.12-1.62,12.21-4.86c2.88-3.03,4.65-7.17,5.3-12.43h16.43  c-0.86,9.58-4.38,17.24-10.54,22.97c-6.16,5.73-13.96,8.59-23.4,8.59c-11.6,0-20.9-3.89-27.89-11.67  c-6.7-7.42-10.05-16.9-10.05-28.43c0-11.82,3.35-21.47,10.05-28.97c6.92-7.85,16.21-11.78,27.89-11.78  c8.79,0,16.21,2.42,22.27,7.24C677.61,125.77,681.29,132.61,682.3,141.26z"></path>			<linearGradient id="SVGID_00000153676784117941039720000009102062392856831627_" gradientUnits="userSpaceOnUse" x1="289.7309" y1="163.7971" x2="1100.665" y2="163.7971">		<stop offset="0" style="stop-color:#00FFFC"></stop>		<stop offset="0.1816" style="stop-color:#74FF74"></stop>		<stop offset="0.3799" style="stop-color:#FFCE1A"></stop>		<stop offset="0.6034" style="stop-color:#FA7781"></stop>		<stop offset="0.8436" style="stop-color:#FF2ADF"></stop>		<stop offset="1" style="stop-color:#FF2ADF"></stop>	</linearGradient>	<path style="fill:url(#SVGID_00000153676784117941039720000009102062392856831627_);" d="M692.89,192.5v-55.88h14.59v10.38h0.22  c1.37-3.46,3.75-6.3,7.13-8.54c3.39-2.23,6.95-3.35,10.7-3.35c1.15,0,2.27,0.18,3.35,0.54v14.27c-1.59-0.36-3.42-0.54-5.51-0.54  c-10.09,0-15.13,5.98-15.13,17.94v25.19H692.89z"></path>			<linearGradient id="SVGID_00000001652986425255217720000011479567860765909635_" gradientUnits="userSpaceOnUse" x1="289.7309" y1="164.5538" x2="1100.665" y2="164.5538">		<stop offset="0" style="stop-color:#00FFFC"></stop>		<stop offset="0.1816" style="stop-color:#74FF74"></stop>		<stop offset="0.3799" style="stop-color:#FFCE1A"></stop>		<stop offset="0.6034" style="stop-color:#FA7781"></stop>		<stop offset="0.8436" style="stop-color:#FF2ADF"></stop>		<stop offset="1" style="stop-color:#FF2ADF"></stop>	</linearGradient>	<path style="fill:url(#SVGID_00000001652986425255217720000011479567860765909635_);" d="M749.64,153.8h-15.35  c0.43-6.63,3.35-11.53,8.76-14.7c4.47-2.67,10.3-4,17.51-4c16.36,0,24.54,5.3,24.54,15.89v29.08c0,6.2,0.65,10.34,1.95,12.43  h-15.57c-0.65-2.02-1.01-3.82-1.08-5.4c-4.4,4.61-10.67,6.92-18.81,6.92c-5.62,0-10.13-1.37-13.51-4.11  c-3.68-2.95-5.51-7.17-5.51-12.65c0-5.69,1.98-9.94,5.95-12.75c2.88-1.95,7.24-3.35,13.08-4.22c8.29-1.15,12.5-1.76,12.65-1.84  c3.68-0.94,5.51-2.77,5.51-5.51c0-3.03-1.01-5.12-3.03-6.27c-1.44-0.86-3.75-1.3-6.92-1.3  C753.53,145.37,750.14,148.18,749.64,153.8z M769.74,170.88v-5.73c-1.23,1.08-3.89,1.91-8,2.49c-4.69,0.72-7.78,1.41-9.3,2.05  c-3.03,1.37-4.54,3.68-4.54,6.92c0,4.76,3.13,7.13,9.4,7.13C765.6,183.74,769.74,179.45,769.74,170.88z"></path>			<linearGradient id="SVGID_00000042731984039297946470000010827884336972484003_" gradientUnits="userSpaceOnUse" x1="289.7309" y1="153.9065" x2="1100.665" y2="153.9065">		<stop offset="0" style="stop-color:#00FFFC"></stop>		<stop offset="0.1816" style="stop-color:#74FF74"></stop>		<stop offset="0.3799" style="stop-color:#FFCE1A"></stop>		<stop offset="0.6034" style="stop-color:#FA7781"></stop>		<stop offset="0.8436" style="stop-color:#FF2ADF"></stop>		<stop offset="1" style="stop-color:#FF2ADF"></stop>	</linearGradient>	<path style="fill:url(#SVGID_00000042731984039297946470000010827884336972484003_);" d="M800.33,192.5v-45.62h-9.19v-10.27h9.19  v-4.32c0-5.12,1.6-9.22,4.81-12.32c3.21-3.1,7.84-4.65,13.89-4.65c1.01,0,2.38,0.07,4.11,0.22c2.16,0.15,3.49,0.22,4,0.22v11.46  c-1.8-0.22-3.68-0.32-5.62-0.32c-3.89,0-5.84,2.13-5.84,6.38v3.35h10.59v10.27h-10.59v45.62H800.33z"></path>			<linearGradient id="SVGID_00000091014878952256508390000004989398595624788353_" gradientUnits="userSpaceOnUse" x1="289.7309" y1="156.5008" x2="1100.665" y2="156.5008">		<stop offset="0" style="stop-color:#00FFFC"></stop>		<stop offset="0.1816" style="stop-color:#74FF74"></stop>		<stop offset="0.3799" style="stop-color:#FFCE1A"></stop>		<stop offset="0.6034" style="stop-color:#FA7781"></stop>		<stop offset="0.8436" style="stop-color:#FF2ADF"></stop>		<stop offset="1" style="stop-color:#FF2ADF"></stop>	</linearGradient>	<path style="fill:url(#SVGID_00000091014878952256508390000004989398595624788353_);" d="M852.43,119.86v16.75h11.24v10.27h-11.24  v27.67c0,2.59,0.43,4.32,1.3,5.19c0.86,0.86,2.59,1.3,5.19,1.3c1.73,0,3.31-0.14,4.76-0.43v12c-2.16,0.36-5.15,0.54-8.97,0.54  c-11.75,0-17.62-4.43-17.62-13.3v-32.97h-9.3v-10.27h9.3v-16.75H852.43z"></path>			<linearGradient id="SVGID_00000163760701963994210280000006907379363375295372_" gradientUnits="userSpaceOnUse" x1="289.7309" y1="164.5538" x2="1100.665" y2="164.5538">		<stop offset="0" style="stop-color:#00FFFC"></stop>		<stop offset="0.1816" style="stop-color:#74FF74"></stop>		<stop offset="0.3799" style="stop-color:#FFCE1A"></stop>		<stop offset="0.6034" style="stop-color:#FA7781"></stop>		<stop offset="0.8436" style="stop-color:#FF2ADF"></stop>		<stop offset="1" style="stop-color:#FF2ADF"></stop>	</linearGradient>	<path style="fill:url(#SVGID_00000163760701963994210280000006907379363375295372_);" d="M923.99,168.28h-40.32  c0.43,9.44,5.01,14.16,13.73,14.16c2.95,0,5.62-0.79,8-2.38c2.23-1.37,3.6-2.99,4.11-4.86h13.51  c-4.11,12.54-12.83,18.81-26.16,18.81c-8.72,0-15.66-2.72-20.81-8.16c-5.15-5.44-7.73-12.52-7.73-21.24  c0-8.5,2.65-15.55,7.94-21.13c5.3-5.58,12.16-8.38,20.59-8.38c9.08,0,16.11,3.39,21.08,10.16  C922.55,151.46,924.57,159.13,923.99,168.28z M883.67,158.55h24.97c-1.44-7.93-5.51-11.89-12.21-11.89c-4.32,0-7.64,1.44-9.95,4.32  C884.75,153.15,883.82,155.67,883.67,158.55z"></path>			<linearGradient id="SVGID_00000103247948122092355910000008703440710347310982_" gradientUnits="userSpaceOnUse" x1="289.7309" y1="163.7971" x2="1100.665" y2="163.7971">		<stop offset="0" style="stop-color:#00FFFC"></stop>		<stop offset="0.1816" style="stop-color:#74FF74"></stop>		<stop offset="0.3799" style="stop-color:#FFCE1A"></stop>		<stop offset="0.6034" style="stop-color:#FA7781"></stop>		<stop offset="0.8436" style="stop-color:#FF2ADF"></stop>		<stop offset="1" style="stop-color:#FF2ADF"></stop>	</linearGradient>	<path style="fill:url(#SVGID_00000103247948122092355910000008703440710347310982_);" d="M933.07,192.5v-55.88h14.59v10.38h0.22  c1.37-3.46,3.75-6.3,7.13-8.54c3.39-2.23,6.95-3.35,10.7-3.35c1.15,0,2.27,0.18,3.35,0.54v14.27c-1.59-0.36-3.42-0.54-5.51-0.54  c-10.09,0-15.13,5.98-15.13,17.94v25.19H933.07z"></path>			<linearGradient id="SVGID_00000101074229932252239810000004643439466216755083_" gradientUnits="userSpaceOnUse" x1="289.7309" y1="164.5538" x2="1100.665" y2="164.5538">		<stop offset="0" style="stop-color:#00FFFC"></stop>		<stop offset="0.1816" style="stop-color:#74FF74"></stop>		<stop offset="0.3799" style="stop-color:#FFCE1A"></stop>		<stop offset="0.6034" style="stop-color:#FA7781"></stop>		<stop offset="0.8436" style="stop-color:#FF2ADF"></stop>		<stop offset="1" style="stop-color:#FF2ADF"></stop>	</linearGradient>	<path style="fill:url(#SVGID_00000101074229932252239810000004643439466216755083_);" d="M972.41,174.34h14.59  c0.07,3.17,1.3,5.59,3.68,7.24c2.09,1.44,4.79,2.16,8.11,2.16c2.67,0,4.9-0.5,6.7-1.51c2.23-1.3,3.35-3.17,3.35-5.62  c0-2.16-1.51-3.89-4.54-5.19c-2.16-0.94-6.45-2.09-12.86-3.46c-5.48-1.15-9.55-2.66-12.21-4.54c-3.68-2.45-5.51-5.91-5.51-10.38  c0-11.96,8.11-17.94,24.32-17.94c15.42,0,23.64,5.95,24.65,17.84h-14.59c-0.36-5.04-3.86-7.57-10.48-7.57  c-5.69,0-8.54,1.73-8.54,5.19c0,2.38,1.8,4.22,5.4,5.51c0.43,0.15,4.43,1.08,12,2.81c5.55,1.3,9.62,2.88,12.21,4.76  c3.68,2.59,5.51,6.23,5.51,10.92c0,6.77-2.67,11.86-8,15.24c-4.4,2.81-10.23,4.22-17.51,4.22c-7.28,0-13.19-1.44-17.73-4.32  C975.55,186.3,972.7,181.18,972.41,174.34z"></path></g></svg>