<svg width="495" height="35" viewBox="0 0 495 35" fill="none" xmlns="http://www.w3.org/2000/svg">
<g clip-path="url(#clip0_1586_871)">
<path d="M15.1748 33.7889V4.8688C15.1791 4.27014 14.9498 3.69404 14.5371 3.26616C14.1243 2.83828 13.5615 2.59335 12.9714 2.58478H1.21759C1.05853 2.59826 0.898451 2.57812 0.747463 2.52562C0.596475 2.47312 0.457867 2.38942 0.340401 2.27979C0.222936 2.17017 0.129169 2.03701 0.0650295 1.88874C0.000890087 1.74047 -0.0322266 1.58031 -0.0322266 1.41839C-0.0322266 1.25646 0.000890087 1.0963 0.0650295 0.948033C0.129169 0.799762 0.222936 0.666604 0.340401 0.556979C0.457867 0.447353 0.596475 0.363646 0.747463 0.311149C0.898451 0.258652 1.05853 0.238507 1.21759 0.251989H12.9714C13.5735 0.245547 14.1708 0.36015 14.729 0.589181C15.2871 0.818211 15.795 1.15713 16.2234 1.58638C16.6517 2.01563 16.992 2.52669 17.2246 3.09008C17.4571 3.65346 17.5774 4.25801 17.5784 4.8688V33.7889C17.5621 34.1081 17.426 34.4088 17.1981 34.6295C16.9701 34.8501 16.6676 34.974 16.3526 34.9756C16.0422 34.9735 15.7451 34.8481 15.5249 34.6262C15.3047 34.4043 15.179 34.1037 15.1748 33.7889ZM20.7833 2.58478C20.6243 2.59826 20.4642 2.57812 20.3132 2.52562C20.1622 2.47312 20.0236 2.38942 19.9061 2.27979C19.7887 2.17017 19.6949 2.03701 19.6308 1.88874C19.5666 1.74047 19.5335 1.58031 19.5335 1.41839C19.5335 1.25646 19.5666 1.0963 19.6308 0.948033C19.6949 0.799762 19.7887 0.666604 19.9061 0.556979C20.0236 0.447353 20.1622 0.363646 20.3132 0.311149C20.4642 0.258652 20.6243 0.238507 20.7833 0.251989H31.5356C31.6947 0.238507 31.8548 0.258652 32.0058 0.311149C32.1568 0.363646 32.2954 0.447353 32.4128 0.556979C32.5303 0.666604 32.6241 0.799762 32.6882 0.948033C32.7523 1.0963 32.7855 1.25646 32.7855 1.41839C32.7855 1.58031 32.7523 1.74047 32.6882 1.88874C32.6241 2.03701 32.5303 2.17017 32.4128 2.27979C32.2954 2.38942 32.1568 2.47312 32.0058 2.52562C31.8548 2.57812 31.6947 2.59826 31.5356 2.58478H20.7833Z" fill="white"/>
<path d="M72.2374 1.24364V14.0618C72.2364 14.6726 72.1161 15.2771 71.8835 15.8405C71.651 16.4039 71.3107 16.915 70.8824 17.3442C70.454 17.7735 69.9461 18.1124 69.388 18.3414C68.8298 18.5705 68.2325 18.6851 67.6304 18.6786H44.6115C44.0348 18.6893 43.4854 18.9298 43.0821 19.348C42.6788 19.7663 42.454 20.3288 42.4562 20.9139V33.7889C42.452 34.1024 42.3275 34.4018 42.109 34.6234C41.8905 34.8451 41.5954 34.9714 41.2864 34.9756C40.969 34.9822 40.6619 34.8611 40.4323 34.6387C40.2026 34.4164 40.0689 34.1109 40.0605 33.7889V20.9139C40.069 19.6966 40.5527 18.5323 41.4057 17.676C42.2587 16.8198 43.4115 16.3415 44.6115 16.3458H67.6304C68.2205 16.3373 68.7833 16.0923 69.1961 15.6644C69.6088 15.2366 69.8381 14.6605 69.8338 14.0618V1.24364C69.8338 0.920283 69.9604 0.610168 70.1858 0.381518C70.4112 0.152868 70.7169 0.0244141 71.0356 0.0244141C71.3543 0.0244141 71.66 0.152868 71.8854 0.381518C72.1108 0.610168 72.2374 0.920283 72.2374 1.24364ZM40.0605 12.867V1.24364C40.0605 0.920283 40.1872 0.610168 40.4126 0.381518C40.6379 0.152868 40.9436 0.0244141 41.2624 0.0244141C41.5811 0.0244141 41.8868 0.152868 42.1122 0.381518C42.3376 0.610168 42.4642 0.920283 42.4642 1.24364V12.867C42.4621 13.1818 42.3385 13.4833 42.1198 13.7067C41.9011 13.9301 41.6047 14.0576 41.2944 14.0618C41.1359 14.0661 40.9781 14.0386 40.8302 13.9808C40.6822 13.923 40.547 13.836 40.4323 13.725C40.3176 13.6139 40.2257 13.4809 40.1619 13.3336C40.0981 13.1864 40.0637 13.0278 40.0605 12.867ZM72.2374 22.1087V33.7889C72.2374 34.1123 72.1108 34.4224 71.8854 34.6511C71.66 34.8797 71.3543 35.0082 71.0356 35.0082C70.7169 35.0082 70.4112 34.8797 70.1858 34.6511C69.9604 34.4224 69.8338 34.1123 69.8338 33.7889V22.1087C69.8338 21.7854 69.9604 21.4752 70.1858 21.2466C70.4112 21.0179 70.7169 20.8895 71.0356 20.8895C71.3543 20.8895 71.66 21.0179 71.8854 21.2466C72.1108 21.4752 72.2374 21.7854 72.2374 22.1087Z" fill="white"/>
<path d="M114.157 1.43866C114.155 1.592 114.123 1.74341 114.063 1.88416C114.003 2.02491 113.916 2.15222 113.807 2.25875C113.699 2.36528 113.57 2.44893 113.43 2.50488C113.289 2.56083 113.139 2.58797 112.987 2.58474H86.5472C85.9599 2.61418 85.4069 2.87392 85.0048 3.30915C84.6026 3.74439 84.3829 4.32107 84.3919 4.91753V12.8669C84.3919 13.1903 84.2653 13.5004 84.0399 13.729C83.8145 13.9577 83.5089 14.0861 83.1901 14.0861C82.8714 14.0861 82.5657 13.9577 82.3403 13.729C82.1149 13.5004 81.9883 13.1903 81.9883 12.8669V4.86876C81.9872 4.26148 82.1045 3.65998 82.3333 3.09883C82.5621 2.53768 82.898 2.02794 83.3217 1.5989C83.7453 1.16987 84.2484 0.830012 84.8019 0.598855C85.3555 0.367698 85.9486 0.249803 86.5472 0.251946H112.987C113.142 0.249757 113.295 0.278958 113.438 0.337821C113.58 0.396684 113.71 0.484015 113.819 0.594651C113.928 0.705287 114.014 0.836981 114.072 0.981949C114.131 1.12692 114.159 1.28221 114.157 1.43866ZM114.157 33.6344C114.159 33.478 114.131 33.3227 114.072 33.1777C114.014 33.0328 113.928 32.9011 113.819 32.7904C113.71 32.6798 113.58 32.5925 113.438 32.5336C113.295 32.4747 113.142 32.4455 112.987 32.4477H86.5472C85.9669 32.4186 85.4197 32.1645 85.0187 31.738C84.6176 31.3115 84.3933 30.745 84.3919 30.1556V20.9707C84.3853 20.3789 84.607 19.8079 85.0097 19.3796C85.4124 18.9513 85.9642 18.6997 86.5472 18.6786H106.377C106.536 18.692 106.696 18.6719 106.847 18.6194C106.998 18.5669 107.137 18.4832 107.255 18.3736C107.372 18.2639 107.466 18.1308 107.53 17.9825C107.594 17.8342 107.627 17.6741 107.627 17.5122C107.627 17.3502 107.594 17.1901 107.53 17.0418C107.466 16.8935 107.372 16.7604 107.255 16.6508C107.137 16.5411 106.998 16.4574 106.847 16.4049C106.696 16.3524 106.536 16.3323 106.377 16.3458H86.5873C85.989 16.3447 85.3963 16.4633 84.8433 16.6949C84.2902 16.9264 83.7876 17.2663 83.3641 17.6951C82.9407 18.1239 82.6047 18.6333 82.3755 19.1939C82.1463 19.7546 82.0284 20.3556 82.0284 20.9626V30.1556C82.0347 31.3802 82.517 32.5529 83.3706 33.4188C84.2242 34.2848 85.3801 34.7741 86.5873 34.7805H113.027C113.326 34.7763 113.611 34.6542 113.822 34.4402C114.033 34.2262 114.153 33.9371 114.157 33.6344Z" fill="white"/>
<path d="M146.575 30.6026C146.44 30.521 146.323 30.4132 146.229 30.2855C146.136 30.1578 146.068 30.0126 146.029 29.8582C145.991 29.7039 145.983 29.5434 146.006 29.3859C146.029 29.2284 146.082 29.0771 146.162 28.9404C146.325 28.6645 146.589 28.4654 146.896 28.3869C147.048 28.348 147.207 28.3399 147.362 28.3631C147.517 28.3862 147.666 28.4402 147.801 28.5218C151.892 31.1427 156.623 32.5504 161.462 32.5859C166.509 32.5859 173.905 30.7977 173.905 25.3843C173.905 19.971 167.679 19.467 161.085 18.8818C153.938 18.2397 146.447 17.3943 146.447 9.64004C146.447 2.48723 154.235 0 160.869 0C165.743 0.0931378 170.513 1.44425 174.73 3.92592C174.865 4.00197 174.984 4.10473 175.08 4.22815C175.176 4.35158 175.246 4.49318 175.287 4.64463C175.328 4.79608 175.339 4.95433 175.319 5.11008C175.299 5.26582 175.249 5.41592 175.17 5.55156C175.097 5.69065 174.997 5.81315 174.875 5.9116C174.754 6.01005 174.614 6.08239 174.464 6.12422C174.314 6.16604 174.157 6.17647 174.003 6.15488C173.849 6.13328 173.701 6.08011 173.568 5.99861C169.714 3.71311 165.348 2.4652 160.885 2.37343C155.741 2.37343 148.866 3.99907 148.866 9.62378C148.866 14.6876 153.522 15.7362 161.157 16.2808C168.368 16.7766 176.292 17.8251 176.292 25.3762C176.292 32.2771 167.775 35.2601 161.454 34.9594C156.197 34.8991 151.055 33.3934 146.575 30.6026Z" fill="#F7EC1E"/>
<path d="M183.655 17.4919C183.655 6.16117 192.228 0 202.412 0C213.829 0 221.176 6.85207 221.176 17.4919C221.176 28.1317 213.829 34.9756 202.412 34.9756C190.994 34.9756 183.655 28.1235 183.655 17.4919ZM186.059 17.4919C186.059 26.7824 192.324 32.5941 202.412 32.5941C212.499 32.5941 218.773 26.7824 218.773 17.4919C218.773 8.20135 212.507 2.43033 202.412 2.43033C192.316 2.43033 186.059 8.20135 186.059 17.4919Z" fill="#F7EC1E"/>
<path d="M234.3 34.7806C233.107 34.7893 231.958 34.3193 231.104 33.4729C230.25 32.6265 229.76 31.4722 229.741 30.2613V1.24364C229.738 1.08352 229.766 0.924332 229.824 0.775169C229.881 0.626006 229.967 0.48979 230.076 0.374303C230.186 0.258817 230.317 0.166322 230.461 0.102102C230.606 0.037883 230.761 0.0031973 230.919 2.69175e-05C231.081 -0.00105309 231.24 0.0303766 231.39 0.0924915C231.539 0.154606 231.674 0.246169 231.788 0.361865C231.902 0.477561 231.993 0.615086 232.054 0.766455C232.115 0.917825 232.146 1.08003 232.145 1.24364V30.2613C232.151 30.8384 232.381 31.3901 232.784 31.7974C233.187 32.2048 233.731 32.4354 234.3 32.4396H256.43C256.586 32.434 256.742 32.461 256.887 32.519C257.033 32.577 257.165 32.6649 257.275 32.777C257.386 32.8891 257.472 33.0231 257.53 33.1706C257.587 33.3181 257.613 33.476 257.608 33.6345C257.609 33.7895 257.579 33.9432 257.52 34.086C257.46 34.2289 257.373 34.358 257.263 34.4653C257.152 34.5726 257.022 34.6559 256.878 34.7101C256.735 34.7644 256.583 34.7883 256.43 34.7806H234.3Z" fill="#F7EC1E"/>
<path d="M297.772 34.2847L283.582 3.87716C283.371 3.44278 283.043 3.07755 282.636 2.82316C282.229 2.56877 281.761 2.43547 281.283 2.43847C280.811 2.43639 280.347 2.57053 279.947 2.82525C279.547 3.07996 279.227 3.44477 279.023 3.87716L264.81 34.2847C264.661 34.5658 264.415 34.7816 264.12 34.891C263.825 35.0005 263.5 34.9958 263.207 34.8781C262.928 34.7302 262.716 34.4783 262.616 34.1751C262.516 33.8719 262.535 33.5412 262.671 33.2524L276.86 2.82049C277.268 1.98775 277.896 1.28661 278.674 0.795628C279.453 0.304649 280.35 0.0432269 281.267 0.0406494C282.189 0.0452679 283.093 0.307006 283.878 0.797261C284.664 1.28752 285.302 1.98742 285.722 2.82049L299.927 33.2362C300.043 33.5337 300.046 33.864 299.937 34.1638C299.827 34.4637 299.613 34.7122 299.334 34.8618C299.05 34.9844 298.731 34.993 298.441 34.8859C298.151 34.7787 297.912 34.5639 297.772 34.2847ZM279.4 22.6045C279.369 22.2249 279.452 21.8447 279.638 21.5137C279.824 21.1826 280.103 20.916 280.441 20.7487C280.778 20.5814 281.157 20.5212 281.529 20.5758C281.9 20.6305 282.247 20.7976 282.523 21.0553C282.8 21.3129 282.993 21.6492 283.079 22.0201C283.164 22.391 283.137 22.7794 283.001 23.1346C282.866 23.4897 282.627 23.7951 282.318 24.0108C282.009 24.2266 281.642 24.3427 281.267 24.3439C281.028 24.3694 280.787 24.343 280.56 24.2667C280.332 24.1904 280.123 24.0659 279.947 23.9014C279.77 23.7369 279.63 23.5362 279.536 23.3126C279.442 23.089 279.395 22.8476 279.4 22.6045Z" fill="#F7EC1E"/>
<path d="M313.148 32.147L298.943 1.73945C298.867 1.59765 298.821 1.44154 298.808 1.28091C298.794 1.12027 298.814 0.958576 298.865 0.805953C298.916 0.653331 298.998 0.513073 299.105 0.39397C299.212 0.274868 299.342 0.179489 299.487 0.113813C299.772 -0.0233895 300.098 -0.0433053 300.397 0.0582515C300.696 0.159808 300.944 0.374929 301.09 0.658402L315.295 31.066C315.488 31.5096 315.803 31.887 316.202 32.1525C316.602 32.418 317.069 32.5601 317.547 32.5616C318.021 32.5749 318.489 32.4454 318.891 32.1894C319.293 31.9333 319.612 31.5622 319.806 31.1229L334.06 0.690915C334.127 0.546004 334.223 0.416418 334.341 0.309967C334.459 0.203516 334.597 0.122404 334.747 0.0715187C334.896 0.0206332 335.055 0.00102787 335.212 0.0138844C335.369 0.0267409 335.523 0.0717931 335.662 0.146326C335.952 0.283969 336.176 0.532189 336.285 0.836776C336.395 1.14136 336.381 1.47757 336.247 1.77196L321.962 32.1958C321.566 33.0383 320.941 33.748 320.16 34.2407C319.379 34.7334 318.475 34.9885 317.555 34.9756C316.631 34.9772 315.727 34.7121 314.946 34.2112C314.166 33.7102 313.542 32.9943 313.148 32.147Z" fill="white"/>
<path d="M375.787 1.4387C375.785 1.59274 375.752 1.74483 375.692 1.88612C375.631 2.02741 375.544 2.15509 375.434 2.26173C375.325 2.36837 375.195 2.45185 375.053 2.50731C374.912 2.56276 374.761 2.5891 374.609 2.58477H348.217C347.632 2.61827 347.083 2.87979 346.685 3.31459C346.286 3.74939 346.068 4.32378 346.077 4.91756V12.8669C346.077 13.1903 345.951 13.5004 345.725 13.7291C345.5 13.9577 345.194 14.0862 344.876 14.0862C344.557 14.0862 344.251 13.9577 344.026 13.7291C343.8 13.5004 343.674 13.1903 343.674 12.8669V4.8688C343.673 4.26152 343.79 3.66002 344.019 3.09887C344.248 2.53771 344.584 2.02797 345.007 1.59894C345.431 1.16991 345.934 0.830048 346.487 0.598891C347.041 0.367734 347.634 0.249839 348.233 0.251982H374.633C374.786 0.251967 374.937 0.282772 375.078 0.342607C375.219 0.402442 375.347 0.490114 375.454 0.600529C375.562 0.710944 375.646 0.8419 375.703 0.985789C375.76 1.12968 375.789 1.28363 375.787 1.4387ZM375.787 33.6345C375.789 33.4773 375.76 33.3213 375.701 33.1758C375.643 33.0303 375.556 32.8982 375.446 32.7875C375.336 32.6767 375.205 32.5896 375.062 32.5312C374.918 32.4729 374.764 32.4445 374.609 32.4478H348.217C347.639 32.4146 347.096 32.1588 346.698 31.7327C346.301 31.3066 346.079 30.7424 346.077 30.1556V20.9707C346.071 20.3789 346.293 19.8079 346.695 19.3796C347.098 18.9514 347.65 18.6998 348.233 18.6786H368.063C368.222 18.6921 368.382 18.6719 368.533 18.6194C368.684 18.5669 368.823 18.4832 368.94 18.3736C369.058 18.264 369.151 18.1308 369.215 17.9826C369.28 17.8343 369.313 17.6741 369.313 17.5122C369.313 17.3503 369.28 17.1901 369.215 17.0418C369.151 16.8936 369.058 16.7604 368.94 16.6508C368.823 16.5412 368.684 16.4575 368.533 16.405C368.382 16.3525 368.222 16.3323 368.063 16.3458H348.217C347.011 16.348 345.856 16.8353 345.004 17.7009C344.152 18.5665 343.674 19.7396 343.674 20.9626V30.1556C343.68 31.3802 344.162 32.5529 345.016 33.4189C345.87 34.2848 347.026 34.7741 348.233 34.7805H374.625C374.775 34.7827 374.925 34.7548 375.065 34.6983C375.204 34.6419 375.332 34.5581 375.44 34.4516C375.548 34.3452 375.634 34.2183 375.693 34.0781C375.753 33.9378 375.785 33.7871 375.787 33.6345Z" fill="white"/>
<path d="M384.36 33.7889V4.86877C384.359 4.26219 384.476 3.66135 384.704 3.10073C384.932 2.54011 385.267 2.03073 385.69 1.60181C386.113 1.17288 386.615 0.832851 387.168 0.601213C387.72 0.369576 388.313 0.25089 388.91 0.25196H406.009C411.545 0.25196 416 4.37295 416 9.33928C416 14.3056 411.545 18.6786 406.057 18.6786H402.163L416.168 32.9436C416.302 33.0423 416.412 33.1709 416.49 33.3196C416.567 33.4684 416.61 33.6331 416.614 33.8013C416.619 33.9694 416.586 34.1363 416.516 34.2892C416.447 34.4421 416.345 34.5768 416.216 34.683C415.974 34.8901 415.665 34.9989 415.348 34.9884C415.031 34.9779 414.73 34.8488 414.501 34.6261L398.413 18.3291C398.246 18.1673 398.132 17.9565 398.089 17.7261C398.046 17.4958 398.075 17.2575 398.173 17.0448C398.257 16.8256 398.405 16.6372 398.596 16.5039C398.788 16.3707 399.014 16.2986 399.246 16.297H406.057C410.215 16.297 413.644 13.0457 413.644 9.33928C413.644 5.63282 410.215 2.53598 406.009 2.53598H388.91C388.324 2.56741 387.772 2.82776 387.37 3.26256C386.969 3.69735 386.748 4.2729 386.755 4.86877V33.7889C386.755 34.1122 386.629 34.4224 386.403 34.651C386.178 34.8797 385.872 35.0081 385.553 35.0081C385.235 35.0081 384.929 34.8797 384.704 34.651C384.478 34.4224 384.352 34.1122 384.352 33.7889H384.36Z" fill="white"/>
<path d="M424.597 30.6026C424.34 30.4319 424.157 30.1668 424.088 29.8627C424.018 29.5586 424.067 29.2389 424.224 28.9705C424.381 28.7021 424.634 28.5055 424.931 28.4219C425.227 28.3383 425.544 28.3741 425.815 28.5218C429.909 31.1417 434.644 32.5493 439.484 32.5859C444.524 32.5859 451.919 30.7977 451.919 25.3843C451.919 19.971 445.701 19.467 439.099 18.8818C431.953 18.2397 424.453 17.3943 424.453 9.64004C424.453 2.48723 432.241 0 438.875 0C443.747 0.0934431 448.514 1.44459 452.728 3.92592C452.865 4.00029 452.986 4.1022 453.083 4.22543C453.18 4.34866 453.251 4.49064 453.293 4.64272C453.334 4.79481 453.344 4.95381 453.323 5.11006C453.302 5.2663 453.249 5.41652 453.169 5.55156C453.096 5.69151 452.996 5.81487 452.875 5.91399C452.754 6.01312 452.613 6.08589 452.463 6.12781C452.313 6.16972 452.156 6.17988 452.002 6.15766C451.847 6.13543 451.699 6.0813 451.566 5.99861C447.712 3.71511 443.346 2.46735 438.883 2.37343C433.739 2.37343 426.865 3.99907 426.865 9.62378C426.865 14.6876 431.52 15.7362 439.156 16.2808C446.366 16.7766 454.291 17.8251 454.291 25.3762C454.291 32.2771 445.766 35.2601 439.452 34.9594C434.203 34.8972 429.069 33.3914 424.597 30.6026Z" fill="white"/>
<path d="M494.992 1.43866C494.99 1.592 494.958 1.74341 494.898 1.88416C494.838 2.02491 494.751 2.15222 494.642 2.25875C494.533 2.36528 494.405 2.44893 494.264 2.50488C494.123 2.56083 493.973 2.58797 493.822 2.58474H467.422C466.835 2.61418 466.282 2.87392 465.88 3.30915C465.477 3.74439 465.258 4.32107 465.267 4.91753V12.8669C465.264 13.027 465.229 13.1849 465.166 13.3317C465.103 13.4784 465.012 13.611 464.898 13.722C464.784 13.8329 464.65 13.92 464.503 13.9783C464.356 14.0366 464.199 14.065 464.041 14.0617C463.731 14.0575 463.434 13.93 463.216 13.7066C462.997 13.4832 462.873 13.1817 462.871 12.8669V4.86876C462.869 4.26187 462.985 3.66055 463.213 3.09944C463.441 2.53834 463.776 2.02853 464.199 1.59939C464.622 1.17025 465.125 0.83026 465.678 0.599004C466.231 0.367748 466.824 0.249797 467.422 0.251946H493.822C493.976 0.249757 494.129 0.278958 494.272 0.337821C494.415 0.396684 494.545 0.484015 494.654 0.594651C494.763 0.705287 494.849 0.836981 494.907 0.981949C494.965 1.12692 494.994 1.28221 494.992 1.43866ZM494.992 33.6344C494.994 33.478 494.965 33.3227 494.907 33.1777C494.849 33.0328 494.763 32.9011 494.654 32.7904C494.545 32.6798 494.415 32.5925 494.272 32.5336C494.129 32.4747 493.976 32.4455 493.822 32.4477H467.422C466.842 32.4186 466.295 32.1645 465.893 31.738C465.492 31.3115 465.268 30.745 465.267 30.1556V20.9707C465.26 20.3789 465.482 19.8079 465.884 19.3796C466.287 18.9513 466.839 18.6997 467.422 18.6786H487.26C487.411 18.6818 487.56 18.6549 487.7 18.5995C487.841 18.544 487.969 18.4611 488.077 18.3554C488.186 18.2498 488.273 18.1234 488.334 17.9836C488.394 17.8438 488.427 17.6933 488.43 17.5406C488.433 17.3835 488.405 17.2273 488.348 17.0814C488.29 16.9355 488.204 16.8028 488.095 16.6913C487.986 16.5798 487.856 16.4917 487.712 16.4324C487.569 16.373 487.415 16.3435 487.26 16.3458H467.422C466.824 16.3447 466.232 16.4634 465.679 16.695C465.127 16.9267 464.625 17.2667 464.202 17.6956C463.779 18.1245 463.444 18.6339 463.215 19.1945C462.987 19.7552 462.87 20.356 462.871 20.9626V30.1556C462.875 31.3795 463.356 32.5521 464.208 33.4183C465.061 34.2845 466.216 34.7741 467.422 34.7805H493.822C493.973 34.7837 494.123 34.7566 494.264 34.7007C494.405 34.6447 494.533 34.5611 494.642 34.4545C494.751 34.348 494.838 34.2207 494.898 34.0799C494.958 33.9392 494.99 33.7878 494.992 33.6344Z" fill="white"/>
</g>
<defs>
<clipPath id="clip0_1586_871">
<rect width="495" height="35" fill="white"/>
</clipPath>
</defs>
</svg>
